M48
; DRILL file {KiCad 9.0.2} date 2026-07-04T16:22:38+0800
; FORMAT={-:-/ absolute / metric / decimal}
; #@! TF.CreationDate,2026-07-04T16:22:38+08:00
; #@! TF.GenerationSoftware,Kicad,Pcbnew,9.0.2
; #@! TF.FileFunction,Plated,1,2,PTH
FMAT,2
METRIC
; #@! TA.AperFunction,Plated,PTH,ViaDrill
T1C0.330
; #@! TA.AperFunction,Plated,PTH,ViaDrill
T2C0.400
; #@! TA.AperFunction,Plated,PTH,ComponentDrill
T3C0.800
; #@! TA.AperFunction,Plated,PTH,ComponentDrill
T4C0.920
; #@! TA.AperFunction,Plated,PTH,ComponentDrill
T5C1.016
; #@! TA.AperFunction,Plated,PTH,ComponentDrill
T6C2.300
%
G90
G05
T1
X114.5Y-122.5
X116.2Y-137.5
X120.0Y-137.5
X121.7Y-134.5
X124.5Y-119.0
X124.5Y-121.5
X124.7Y-135.0
X125.5Y-119.0
X125.5Y-121.5
X127.5Y-122.5
T2
X117.0Y-135.5
X121.597Y-135.5
X122.0Y-121.5
X123.0Y-121.5
X123.457Y-137.5
X125.2Y-133.5
X125.5Y-126.5
X125.7Y-136.0
X127.5Y-127.0
X129.5Y-121.0
X130.0Y-136.5
X135.5Y-121.0
X137.5Y-114.0
X153.5Y-113.5
T3
X141.92Y-117.5
X147.0Y-117.5
T4
X151.27Y-132.29
X151.27Y-135.49
X153.77Y-132.29
X153.77Y-135.49
T5
X113.5Y-125.96
X113.5Y-128.5
X113.5Y-131.04
X115.837Y-140.373
X118.377Y-140.627
X120.917Y-140.373
X123.457Y-140.627
X125.997Y-140.373
X128.537Y-140.5
T6
X146.5Y-135.0
X158.54Y-135.0
M30
