%TF.GenerationSoftware,KiCad,Pcbnew,9.0.2*%
%TF.CreationDate,2026-06-22T22:54:54+08:00*%
%TF.ProjectId,usb_to_uart_converter,7573625f-746f-45f7-9561-72745f636f6e,2.1*%
%TF.SameCoordinates,Original*%
%TF.FileFunction,Legend,Top*%
%TF.FilePolarity,Positive*%
%FSLAX46Y46*%
G04 Gerber Fmt 4.6, Leading zero omitted, Abs format (unit mm)*
G04 Created by KiCad (PCBNEW 9.0.2) date 2026-06-22 22:54:54*
%MOMM*%
%LPD*%
G01*
G04 APERTURE LIST*
%ADD10C,0.150000*%
%ADD11C,0.120000*%
%ADD12C,0.177800*%
%ADD13C,0.100000*%
G04 APERTURE END LIST*
D10*
X165193922Y-109369819D02*
X165527255Y-110369819D01*
X165527255Y-110369819D02*
X165860588Y-109369819D01*
X166146303Y-109465057D02*
X166193922Y-109417438D01*
X166193922Y-109417438D02*
X166289160Y-109369819D01*
X166289160Y-109369819D02*
X166527255Y-109369819D01*
X166527255Y-109369819D02*
X166622493Y-109417438D01*
X166622493Y-109417438D02*
X166670112Y-109465057D01*
X166670112Y-109465057D02*
X166717731Y-109560295D01*
X166717731Y-109560295D02*
X166717731Y-109655533D01*
X166717731Y-109655533D02*
X166670112Y-109798390D01*
X166670112Y-109798390D02*
X166098684Y-110369819D01*
X166098684Y-110369819D02*
X166717731Y-110369819D01*
X167146303Y-110274580D02*
X167193922Y-110322200D01*
X167193922Y-110322200D02*
X167146303Y-110369819D01*
X167146303Y-110369819D02*
X167098684Y-110322200D01*
X167098684Y-110322200D02*
X167146303Y-110274580D01*
X167146303Y-110274580D02*
X167146303Y-110369819D01*
X168146302Y-110369819D02*
X167574874Y-110369819D01*
X167860588Y-110369819D02*
X167860588Y-109369819D01*
X167860588Y-109369819D02*
X167765350Y-109512676D01*
X167765350Y-109512676D02*
X167670112Y-109607914D01*
X167670112Y-109607914D02*
X167574874Y-109655533D01*
X122666666Y-110367009D02*
X122333333Y-110367009D01*
X122333333Y-110890819D02*
X122333333Y-109890819D01*
X122333333Y-109890819D02*
X122809523Y-109890819D01*
X123523809Y-110367009D02*
X123666666Y-110414628D01*
X123666666Y-110414628D02*
X123714285Y-110462247D01*
X123714285Y-110462247D02*
X123761904Y-110557485D01*
X123761904Y-110557485D02*
X123761904Y-110700342D01*
X123761904Y-110700342D02*
X123714285Y-110795580D01*
X123714285Y-110795580D02*
X123666666Y-110843200D01*
X123666666Y-110843200D02*
X123571428Y-110890819D01*
X123571428Y-110890819D02*
X123190476Y-110890819D01*
X123190476Y-110890819D02*
X123190476Y-109890819D01*
X123190476Y-109890819D02*
X123523809Y-109890819D01*
X123523809Y-109890819D02*
X123619047Y-109938438D01*
X123619047Y-109938438D02*
X123666666Y-109986057D01*
X123666666Y-109986057D02*
X123714285Y-110081295D01*
X123714285Y-110081295D02*
X123714285Y-110176533D01*
X123714285Y-110176533D02*
X123666666Y-110271771D01*
X123666666Y-110271771D02*
X123619047Y-110319390D01*
X123619047Y-110319390D02*
X123523809Y-110367009D01*
X123523809Y-110367009D02*
X123190476Y-110367009D01*
X124714285Y-110890819D02*
X124142857Y-110890819D01*
X124428571Y-110890819D02*
X124428571Y-109890819D01*
X124428571Y-109890819D02*
X124333333Y-110033676D01*
X124333333Y-110033676D02*
X124238095Y-110128914D01*
X124238095Y-110128914D02*
X124142857Y-110176533D01*
X135204819Y-127761904D02*
X136014342Y-127761904D01*
X136014342Y-127761904D02*
X136109580Y-127714285D01*
X136109580Y-127714285D02*
X136157200Y-127666666D01*
X136157200Y-127666666D02*
X136204819Y-127571428D01*
X136204819Y-127571428D02*
X136204819Y-127380952D01*
X136204819Y-127380952D02*
X136157200Y-127285714D01*
X136157200Y-127285714D02*
X136109580Y-127238095D01*
X136109580Y-127238095D02*
X136014342Y-127190476D01*
X136014342Y-127190476D02*
X135204819Y-127190476D01*
X136204819Y-126190476D02*
X136204819Y-126761904D01*
X136204819Y-126476190D02*
X135204819Y-126476190D01*
X135204819Y-126476190D02*
X135347676Y-126571428D01*
X135347676Y-126571428D02*
X135442914Y-126666666D01*
X135442914Y-126666666D02*
X135490533Y-126761904D01*
X115366666Y-120704819D02*
X115366666Y-121419104D01*
X115366666Y-121419104D02*
X115319047Y-121561961D01*
X115319047Y-121561961D02*
X115223809Y-121657200D01*
X115223809Y-121657200D02*
X115080952Y-121704819D01*
X115080952Y-121704819D02*
X114985714Y-121704819D01*
X116366666Y-121704819D02*
X115795238Y-121704819D01*
X116080952Y-121704819D02*
X116080952Y-120704819D01*
X116080952Y-120704819D02*
X115985714Y-120847676D01*
X115985714Y-120847676D02*
X115890476Y-120942914D01*
X115890476Y-120942914D02*
X115795238Y-120990533D01*
D11*
%TO.C,FB1*%
X120452000Y-115770000D02*
G75*
G02*
X120452000Y-113230000I508000J1270000D01*
G01*
X121199932Y-112199932D02*
G75*
G02*
X126040000Y-112468000I2300068J-2300068D01*
G01*
X126024465Y-116519572D02*
G75*
G02*
X121214000Y-116786000I-2524465J2019572D01*
G01*
X126548000Y-113230000D02*
G75*
G02*
X126548000Y-115770000I-508000J-1270000D01*
G01*
%TO.C,R1*%
X149336359Y-114120000D02*
X149643641Y-114120000D01*
X149336359Y-114880000D02*
X149643641Y-114880000D01*
%TO.C,C3*%
X156140000Y-127127836D02*
X156140000Y-126912164D01*
X156860000Y-127127836D02*
X156860000Y-126912164D01*
%TO.C,C7*%
X119584420Y-139990000D02*
X119865580Y-139990000D01*
X119584420Y-141010000D02*
X119865580Y-141010000D01*
%TO.C,C1*%
X152640000Y-129627836D02*
X152640000Y-129412164D01*
X153360000Y-129627836D02*
X153360000Y-129412164D01*
%TO.C,R3*%
X146346359Y-111620000D02*
X146653641Y-111620000D01*
X146346359Y-112380000D02*
X146653641Y-112380000D01*
D12*
%TO.C,D2*%
X133800000Y-112100000D02*
X133800000Y-113900000D01*
D10*
%TO.C,U1*%
X136675000Y-124125000D02*
X137250000Y-124125000D01*
X136675000Y-129875000D02*
X136675000Y-124125000D01*
X136675000Y-129875000D02*
X137250000Y-129875000D01*
X146750000Y-124125000D02*
X147325000Y-124125000D01*
X146750000Y-129875000D02*
X147325000Y-129875000D01*
X147325000Y-129875000D02*
X147325000Y-124125000D01*
D11*
X137250000Y-130375000D02*
X136920000Y-130615000D01*
X136920000Y-130135000D01*
X137250000Y-130375000D01*
G36*
X137250000Y-130375000D02*
G01*
X136920000Y-130615000D01*
X136920000Y-130135000D01*
X137250000Y-130375000D01*
G37*
%TO.C,C2*%
X153140000Y-117392164D02*
X153140000Y-117607836D01*
X153860000Y-117392164D02*
X153860000Y-117607836D01*
%TO.C,R2*%
X141336359Y-110620000D02*
X141643641Y-110620000D01*
X141336359Y-111380000D02*
X141643641Y-111380000D01*
%TO.C,J1*%
X113200000Y-122000000D02*
X127300000Y-122000000D01*
X113200000Y-126800000D02*
X113200000Y-122000000D01*
X113200000Y-135100000D02*
X113200000Y-130300000D01*
X121000000Y-121300000D02*
X121500000Y-121800000D01*
X121500000Y-121800000D02*
X122000000Y-121300000D01*
X122000000Y-121300000D02*
X121000000Y-121300000D01*
X127300000Y-122000000D02*
X127300000Y-126800000D01*
X127300000Y-130300000D02*
X127300000Y-135100000D01*
X127300000Y-135100000D02*
X113200000Y-135100000D01*
D12*
%TO.C,D1*%
X142600000Y-119200000D02*
X144400000Y-119200000D01*
D13*
%TO.C,C6*%
X125000000Y-139600000D02*
X125200000Y-139400000D01*
X125000000Y-140400000D02*
X125000000Y-139600000D01*
X125200000Y-139400000D02*
X125500000Y-139400000D01*
X125200000Y-140400000D02*
X125200000Y-139600000D01*
X125200000Y-140600000D02*
X125000000Y-140400000D01*
X125500000Y-140600000D02*
X125200000Y-140600000D01*
X127500000Y-140600000D02*
X127900000Y-140600000D01*
X127900000Y-139400000D02*
X127500000Y-139400000D01*
X127900000Y-140600000D02*
X127900000Y-139400000D01*
%TD*%
M02*
