%TF.GenerationSoftware,KiCad,Pcbnew,9.0.2*%
%TF.CreationDate,2026-07-04T16:22:35+08:00*%
%TF.ProjectId,usb_to_uart_converter,7573625f-746f-45f7-9561-72745f636f6e,2.2*%
%TF.SameCoordinates,Original*%
%TF.FileFunction,Soldermask,Top*%
%TF.FilePolarity,Negative*%
%FSLAX46Y46*%
G04 Gerber Fmt 4.6, Leading zero omitted, Abs format (unit mm)*
G04 Created by KiCad (PCBNEW 9.0.2) date 2026-07-04 16:22:35*
%MOMM*%
%LPD*%
G01*
G04 APERTURE LIST*
G04 Aperture macros list*
%AMRoundRect*
0 Rectangle with rounded corners*
0 $1 Rounding radius*
0 $2 $3 $4 $5 $6 $7 $8 $9 X,Y pos of 4 corners*
0 Add a 4 corners polygon primitive as box body*
4,1,4,$2,$3,$4,$5,$6,$7,$8,$9,$2,$3,0*
0 Add four circle primitives for the rounded corners*
1,1,$1+$1,$2,$3*
1,1,$1+$1,$4,$5*
1,1,$1+$1,$6,$7*
1,1,$1+$1,$8,$9*
0 Add four rect primitives between the rounded corners*
20,1,$1+$1,$2,$3,$4,$5,0*
20,1,$1+$1,$4,$5,$6,$7,0*
20,1,$1+$1,$6,$7,$8,$9,0*
20,1,$1+$1,$8,$9,$2,$3,0*%
G04 Aperture macros list end*
%ADD10C,1.879600*%
%ADD11C,2.000000*%
%ADD12RoundRect,0.135000X-0.185000X0.135000X-0.185000X-0.135000X0.185000X-0.135000X0.185000X0.135000X0*%
%ADD13RoundRect,0.140000X0.140000X0.170000X-0.140000X0.170000X-0.140000X-0.170000X0.140000X-0.170000X0*%
%ADD14RoundRect,0.225000X-0.225000X-0.250000X0.225000X-0.250000X0.225000X0.250000X-0.225000X0.250000X0*%
%ADD15C,3.100000*%
%ADD16RoundRect,0.140000X0.170000X-0.140000X0.170000X0.140000X-0.170000X0.140000X-0.170000X-0.140000X0*%
%ADD17RoundRect,0.135000X0.135000X0.185000X-0.135000X0.185000X-0.135000X-0.185000X0.135000X-0.185000X0*%
%ADD18RoundRect,0.250000X0.625000X-0.375000X0.625000X0.375000X-0.625000X0.375000X-0.625000X-0.375000X0*%
%ADD19R,0.450000X1.750000*%
%ADD20RoundRect,0.140000X-0.140000X-0.170000X0.140000X-0.170000X0.140000X0.170000X-0.140000X0.170000X0*%
%ADD21RoundRect,0.135000X-0.135000X-0.185000X0.135000X-0.185000X0.135000X0.185000X-0.135000X0.185000X0*%
%ADD22R,1.400000X1.400000*%
%ADD23C,1.400000*%
%ADD24C,3.000000*%
%ADD25RoundRect,0.225000X-0.250000X0.225000X-0.250000X-0.225000X0.250000X-0.225000X0.250000X0.225000X0*%
G04 APERTURE END LIST*
D10*
%TO.C,J4*%
X128537300Y-140500000D03*
X125997300Y-140373000D03*
X123457300Y-140627000D03*
X120917300Y-140373000D03*
X118377300Y-140627000D03*
X115837300Y-140373000D03*
%TD*%
D11*
%TO.C,FB1*%
X147000000Y-117500000D03*
X141920000Y-117500000D03*
%TD*%
D12*
%TO.C,R1*%
X130000000Y-134490000D03*
X130000000Y-135510000D03*
%TD*%
D13*
%TO.C,C3*%
X137480000Y-121000000D03*
X136520000Y-121000000D03*
%TD*%
D14*
%TO.C,C7*%
X150225000Y-113500000D03*
X151775000Y-113500000D03*
%TD*%
D15*
%TO.C,H2*%
X174500000Y-111500000D03*
%TD*%
D16*
%TO.C,C1*%
X128500000Y-122480000D03*
X128500000Y-121520000D03*
%TD*%
D17*
%TO.C,R3*%
X128710000Y-111400000D03*
X127690000Y-111400000D03*
%TD*%
D15*
%TO.C,H4*%
X174500000Y-141500000D03*
%TD*%
D10*
%TO.C,J2*%
X113500000Y-125960000D03*
X113500000Y-128500000D03*
X113500000Y-131040000D03*
%TD*%
D18*
%TO.C,D2*%
X123700000Y-116800000D03*
X123700000Y-114000000D03*
%TD*%
D19*
%TO.C,U1*%
X121200000Y-131700000D03*
X121850000Y-131700000D03*
X122500000Y-131700000D03*
X123150000Y-131700000D03*
X123800000Y-131700000D03*
X124450000Y-131700000D03*
X125100000Y-131700000D03*
X125750000Y-131700000D03*
X126400000Y-131700000D03*
X127050000Y-131700000D03*
X127700000Y-131700000D03*
X128350000Y-131700000D03*
X129000000Y-131700000D03*
X129650000Y-131700000D03*
X129650000Y-124500000D03*
X129000000Y-124500000D03*
X128350000Y-124500000D03*
X127700000Y-124500000D03*
X127050000Y-124500000D03*
X126400000Y-124500000D03*
X125750000Y-124500000D03*
X125100000Y-124500000D03*
X124450000Y-124500000D03*
X123800000Y-124500000D03*
X123150000Y-124500000D03*
X122500000Y-124500000D03*
X121850000Y-124500000D03*
X121200000Y-124500000D03*
%TD*%
D15*
%TO.C,H1*%
X107500000Y-112000000D03*
%TD*%
D20*
%TO.C,C2*%
X122720000Y-135500000D03*
X123680000Y-135500000D03*
%TD*%
D21*
%TO.C,R2*%
X123190000Y-111400000D03*
X124210000Y-111400000D03*
%TD*%
D15*
%TO.C,H3*%
X107500000Y-142000000D03*
%TD*%
D22*
%TO.C,J1*%
X153770000Y-132290000D03*
D23*
X151270000Y-132290000D03*
X151270000Y-135490000D03*
X153770000Y-135490000D03*
D24*
X146500000Y-135000000D03*
X158540000Y-135000000D03*
%TD*%
D18*
%TO.C,D1*%
X128200000Y-116800000D03*
X128200000Y-114000000D03*
%TD*%
D25*
%TO.C,C6*%
X137500000Y-116775000D03*
X137500000Y-115225000D03*
%TD*%
M02*
