%TF.GenerationSoftware,KiCad,Pcbnew,9.0.2*%
%TF.CreationDate,2026-07-04T16:22:35+08:00*%
%TF.ProjectId,usb_to_uart_converter,7573625f-746f-45f7-9561-72745f636f6e,2.2*%
%TF.SameCoordinates,Original*%
%TF.FileFunction,Copper,L1,Top*%
%TF.FilePolarity,Positive*%
%FSLAX46Y46*%
G04 Gerber Fmt 4.6, Leading zero omitted, Abs format (unit mm)*
G04 Created by KiCad (PCBNEW 9.0.2) date 2026-07-04 16:22:35*
%MOMM*%
%LPD*%
G01*
G04 APERTURE LIST*
G04 Aperture macros list*
%AMRoundRect*
0 Rectangle with rounded corners*
0 $1 Rounding radius*
0 $2 $3 $4 $5 $6 $7 $8 $9 X,Y pos of 4 corners*
0 Add a 4 corners polygon primitive as box body*
4,1,4,$2,$3,$4,$5,$6,$7,$8,$9,$2,$3,0*
0 Add four circle primitives for the rounded corners*
1,1,$1+$1,$2,$3*
1,1,$1+$1,$4,$5*
1,1,$1+$1,$6,$7*
1,1,$1+$1,$8,$9*
0 Add four rect primitives between the rounded corners*
20,1,$1+$1,$2,$3,$4,$5,0*
20,1,$1+$1,$4,$5,$6,$7,0*
20,1,$1+$1,$6,$7,$8,$9,0*
20,1,$1+$1,$8,$9,$2,$3,0*%
G04 Aperture macros list end*
%TA.AperFunction,ComponentPad*%
%ADD10C,1.879600*%
%TD*%
%TA.AperFunction,ComponentPad*%
%ADD11C,2.000000*%
%TD*%
%TA.AperFunction,SMDPad,CuDef*%
%ADD12RoundRect,0.135000X-0.185000X0.135000X-0.185000X-0.135000X0.185000X-0.135000X0.185000X0.135000X0*%
%TD*%
%TA.AperFunction,SMDPad,CuDef*%
%ADD13RoundRect,0.140000X0.140000X0.170000X-0.140000X0.170000X-0.140000X-0.170000X0.140000X-0.170000X0*%
%TD*%
%TA.AperFunction,SMDPad,CuDef*%
%ADD14RoundRect,0.225000X-0.225000X-0.250000X0.225000X-0.250000X0.225000X0.250000X-0.225000X0.250000X0*%
%TD*%
%TA.AperFunction,SMDPad,CuDef*%
%ADD15RoundRect,0.140000X0.170000X-0.140000X0.170000X0.140000X-0.170000X0.140000X-0.170000X-0.140000X0*%
%TD*%
%TA.AperFunction,SMDPad,CuDef*%
%ADD16RoundRect,0.135000X0.135000X0.185000X-0.135000X0.185000X-0.135000X-0.185000X0.135000X-0.185000X0*%
%TD*%
%TA.AperFunction,SMDPad,CuDef*%
%ADD17RoundRect,0.250000X0.625000X-0.375000X0.625000X0.375000X-0.625000X0.375000X-0.625000X-0.375000X0*%
%TD*%
%TA.AperFunction,SMDPad,CuDef*%
%ADD18R,0.450000X1.750000*%
%TD*%
%TA.AperFunction,SMDPad,CuDef*%
%ADD19RoundRect,0.140000X-0.140000X-0.170000X0.140000X-0.170000X0.140000X0.170000X-0.140000X0.170000X0*%
%TD*%
%TA.AperFunction,SMDPad,CuDef*%
%ADD20RoundRect,0.135000X-0.135000X-0.185000X0.135000X-0.185000X0.135000X0.185000X-0.135000X0.185000X0*%
%TD*%
%TA.AperFunction,ComponentPad*%
%ADD21R,1.400000X1.400000*%
%TD*%
%TA.AperFunction,ComponentPad*%
%ADD22C,1.400000*%
%TD*%
%TA.AperFunction,ComponentPad*%
%ADD23C,3.000000*%
%TD*%
%TA.AperFunction,SMDPad,CuDef*%
%ADD24RoundRect,0.225000X-0.250000X0.225000X-0.250000X-0.225000X0.250000X-0.225000X0.250000X0.225000X0*%
%TD*%
%TA.AperFunction,ViaPad*%
%ADD25C,0.800000*%
%TD*%
%TA.AperFunction,ViaPad*%
%ADD26C,0.680000*%
%TD*%
%TA.AperFunction,Conductor*%
%ADD27C,0.520000*%
%TD*%
%TA.AperFunction,Conductor*%
%ADD28C,0.260000*%
%TD*%
G04 APERTURE END LIST*
D10*
%TO.P,J4,1,Pin_1*%
%TO.N,GND*%
X128537300Y-140500000D03*
%TO.P,J4,2,Pin_2*%
%TO.N,Net-(J4-Pin_2)*%
X125997300Y-140373000D03*
%TO.P,J4,3,Pin_3*%
%TO.N,VCCIO*%
X123457300Y-140627000D03*
%TO.P,J4,4,Pin_4*%
%TO.N,Net-(J4-Pin_4)*%
X120917300Y-140373000D03*
%TO.P,J4,5,Pin_5*%
%TO.N,Net-(J4-Pin_5)*%
X118377300Y-140627000D03*
%TO.P,J4,6,Pin_6*%
%TO.N,Net-(J4-Pin_6)*%
X115837300Y-140373000D03*
%TD*%
D11*
%TO.P,FB1,1*%
%TO.N,Net-(J1-VBUS)*%
X147000000Y-117500000D03*
%TO.P,FB1,2*%
%TO.N,/VCC*%
X141920000Y-117500000D03*
%TD*%
D12*
%TO.P,R1,1*%
%TO.N,Net-(U1-CBUS3)*%
X130000000Y-134490000D03*
%TO.P,R1,2*%
%TO.N,VCCIO*%
X130000000Y-135510000D03*
%TD*%
D13*
%TO.P,C3,1*%
%TO.N,/VCC*%
X137480000Y-121000000D03*
%TO.P,C3,2*%
%TO.N,GND*%
X136520000Y-121000000D03*
%TD*%
D14*
%TO.P,C7,1*%
%TO.N,Net-(J1-VBUS)*%
X150225000Y-113500000D03*
%TO.P,C7,2*%
%TO.N,GND*%
X151775000Y-113500000D03*
%TD*%
D15*
%TO.P,C1,1*%
%TO.N,Net-(J2-Pin_1)*%
X128500000Y-122480000D03*
%TO.P,C1,2*%
%TO.N,GND*%
X128500000Y-121520000D03*
%TD*%
D16*
%TO.P,R3,1*%
%TO.N,Net-(D1-A)*%
X128710000Y-111400000D03*
%TO.P,R3,2*%
%TO.N,VCCIO*%
X127690000Y-111400000D03*
%TD*%
D10*
%TO.P,J2,1,Pin_1*%
%TO.N,Net-(J2-Pin_1)*%
X113500000Y-125960000D03*
%TO.P,J2,2,Pin_2*%
%TO.N,VCCIO*%
X113500000Y-128500000D03*
%TO.P,J2,3,Pin_3*%
%TO.N,/VCC*%
X113500000Y-131040000D03*
%TD*%
D17*
%TO.P,D2,1,K*%
%TO.N,Net-(D2-K)*%
X123700000Y-116800000D03*
%TO.P,D2,2,A*%
%TO.N,Net-(D2-A)*%
X123700000Y-114000000D03*
%TD*%
D18*
%TO.P,U1,1,TXD*%
%TO.N,Net-(J4-Pin_4)*%
X121200000Y-131700000D03*
%TO.P,U1,2,DTR*%
%TO.N,unconnected-(U1-DTR-Pad2)*%
X121850000Y-131700000D03*
%TO.P,U1,3,RTS*%
%TO.N,Net-(J4-Pin_6)*%
X122500000Y-131700000D03*
%TO.P,U1,4,VCCIO*%
%TO.N,VCCIO*%
X123150000Y-131700000D03*
%TO.P,U1,5,RXD*%
%TO.N,Net-(J4-Pin_5)*%
X123800000Y-131700000D03*
%TO.P,U1,6,RI*%
%TO.N,unconnected-(U1-RI-Pad6)*%
X124450000Y-131700000D03*
%TO.P,U1,7,GND*%
%TO.N,GND*%
X125100000Y-131700000D03*
%TO.P,U1,8*%
%TO.N,N/C*%
X125750000Y-131700000D03*
%TO.P,U1,9,DCR*%
%TO.N,unconnected-(U1-DCR-Pad9)*%
X126400000Y-131700000D03*
%TO.P,U1,10,DCD*%
%TO.N,unconnected-(U1-DCD-Pad10)*%
X127050000Y-131700000D03*
%TO.P,U1,11,CTS*%
%TO.N,Net-(J4-Pin_2)*%
X127700000Y-131700000D03*
%TO.P,U1,12,CBUS4*%
%TO.N,unconnected-(U1-CBUS4-Pad12)*%
X128350000Y-131700000D03*
%TO.P,U1,13,CBUS2*%
%TO.N,unconnected-(U1-CBUS2-Pad13)*%
X129000000Y-131700000D03*
%TO.P,U1,14,CBUS3*%
%TO.N,Net-(U1-CBUS3)*%
X129650000Y-131700000D03*
%TO.P,U1,15,USBD+*%
%TO.N,/D+*%
X129650000Y-124500000D03*
%TO.P,U1,16,USBD-*%
%TO.N,/D-*%
X129000000Y-124500000D03*
%TO.P,U1,17,3V3OUT*%
%TO.N,Net-(J2-Pin_1)*%
X128350000Y-124500000D03*
%TO.P,U1,18,GND*%
%TO.N,GND*%
X127700000Y-124500000D03*
%TO.P,U1,19,~{RESET}*%
%TO.N,unconnected-(U1-~{RESET}-Pad19)*%
X127050000Y-124500000D03*
%TO.P,U1,20,VCC*%
%TO.N,/VCC*%
X126400000Y-124500000D03*
%TO.P,U1,21,GND*%
%TO.N,GND*%
X125750000Y-124500000D03*
%TO.P,U1,22,CBUS1*%
%TO.N,Net-(D1-K)*%
X125100000Y-124500000D03*
%TO.P,U1,23,CBUS0*%
%TO.N,Net-(D2-K)*%
X124450000Y-124500000D03*
%TO.P,U1,24*%
%TO.N,N/C*%
X123800000Y-124500000D03*
%TO.P,U1,25,AGND*%
%TO.N,GND*%
X123150000Y-124500000D03*
%TO.P,U1,26,TEST*%
X122500000Y-124500000D03*
%TO.P,U1,27,OSCI*%
%TO.N,unconnected-(U1-OSCI-Pad27)*%
X121850000Y-124500000D03*
%TO.P,U1,28,OSCO*%
%TO.N,unconnected-(U1-OSCO-Pad28)*%
X121200000Y-124500000D03*
%TD*%
D19*
%TO.P,C2,1*%
%TO.N,VCCIO*%
X122720000Y-135500000D03*
%TO.P,C2,2*%
%TO.N,GND*%
X123680000Y-135500000D03*
%TD*%
D20*
%TO.P,R2,1*%
%TO.N,Net-(D2-A)*%
X123190000Y-111400000D03*
%TO.P,R2,2*%
%TO.N,VCCIO*%
X124210000Y-111400000D03*
%TD*%
D21*
%TO.P,J1,1,VBUS*%
%TO.N,Net-(J1-VBUS)*%
X153770000Y-132290000D03*
D22*
%TO.P,J1,2,D-*%
%TO.N,/D-*%
X151270000Y-132290000D03*
%TO.P,J1,3,D+*%
%TO.N,/D+*%
X151270000Y-135490000D03*
%TO.P,J1,4,GND*%
%TO.N,GND*%
X153770000Y-135490000D03*
D23*
%TO.P,J1,5,Shield*%
%TO.N,unconnected-(J1-Shield-Pad5)_1*%
X146500000Y-135000000D03*
%TO.N,unconnected-(J1-Shield-Pad5)*%
X158540000Y-135000000D03*
%TD*%
D17*
%TO.P,D1,1,K*%
%TO.N,Net-(D1-K)*%
X128200000Y-116800000D03*
%TO.P,D1,2,A*%
%TO.N,Net-(D1-A)*%
X128200000Y-114000000D03*
%TD*%
D24*
%TO.P,C6,1*%
%TO.N,/VCC*%
X137500000Y-116775000D03*
%TO.P,C6,2*%
%TO.N,GND*%
X137500000Y-115225000D03*
%TD*%
D25*
%TO.N,GND*%
X125700000Y-136000000D03*
X123000000Y-121500000D03*
X125500000Y-126500000D03*
X125200000Y-133500000D03*
X127500000Y-127000000D03*
X129500000Y-121000000D03*
X153500000Y-113500000D03*
X135500000Y-121000000D03*
X137500000Y-114000000D03*
X122000000Y-121500000D03*
D26*
%TO.N,Net-(J2-Pin_1)*%
X114500000Y-122500000D03*
X127500000Y-122500000D03*
D25*
%TO.N,VCCIO*%
X123457300Y-137500000D03*
X121597300Y-135500000D03*
X117000000Y-135500000D03*
X130000000Y-136500000D03*
D26*
%TO.N,Net-(D1-K)*%
X125500000Y-121500000D03*
X125500000Y-119000000D03*
%TO.N,Net-(D2-K)*%
X124500000Y-119000000D03*
X124500000Y-121500000D03*
%TO.N,Net-(J4-Pin_6)*%
X116200000Y-137500000D03*
X121700000Y-134500000D03*
%TO.N,Net-(J4-Pin_5)*%
X120000000Y-137500000D03*
X124700000Y-135000000D03*
%TD*%
D27*
%TO.N,GND*%
X128500000Y-121520000D02*
X128980000Y-121520000D01*
X123150000Y-124500000D02*
X123150000Y-121650000D01*
X151775000Y-113500000D02*
X153500000Y-113500000D01*
X125100000Y-131700000D02*
X125100000Y-133400000D01*
X125750000Y-124500000D02*
X125750000Y-126250000D01*
X127700000Y-126800000D02*
X127500000Y-127000000D01*
X123680000Y-135500000D02*
X124180000Y-136000000D01*
X125750000Y-126250000D02*
X125500000Y-126500000D01*
X127700000Y-124500000D02*
X127700000Y-126800000D01*
X124180000Y-136000000D02*
X125700000Y-136000000D01*
X137500000Y-114000000D02*
X137500000Y-115225000D01*
X128980000Y-121520000D02*
X129500000Y-121000000D01*
X122500000Y-122000000D02*
X122000000Y-121500000D01*
X123150000Y-121650000D02*
X123000000Y-121500000D01*
X125100000Y-133400000D02*
X125200000Y-133500000D01*
X136520000Y-121000000D02*
X135500000Y-121000000D01*
X122500000Y-124500000D02*
X122500000Y-122000000D01*
D28*
%TO.N,Net-(J2-Pin_1)*%
X128480000Y-122500000D02*
X128500000Y-122480000D01*
X113500000Y-123500000D02*
X113500000Y-125960000D01*
X127500000Y-122500000D02*
X128480000Y-122500000D01*
X128500000Y-122480000D02*
X128350000Y-122630000D01*
X128350000Y-122630000D02*
X128350000Y-124500000D01*
X114500000Y-122500000D02*
X113500000Y-123500000D01*
D27*
%TO.N,VCCIO*%
X122720000Y-136020000D02*
X123457300Y-136757300D01*
X111000000Y-135500000D02*
X117000000Y-135500000D01*
X124210000Y-111400000D02*
X127690000Y-111400000D01*
X124210000Y-111324098D02*
X123554902Y-110669000D01*
X113500000Y-128500000D02*
X110000000Y-132000000D01*
X118331000Y-110669000D02*
X109500000Y-119500000D01*
X121597300Y-135500000D02*
X122720000Y-135500000D01*
X123457300Y-140627000D02*
X123150000Y-140319700D01*
X130000000Y-135510000D02*
X130000000Y-136500000D01*
X123554902Y-110669000D02*
X118331000Y-110669000D01*
X122720000Y-135500000D02*
X122720000Y-136020000D01*
X123457300Y-136757300D02*
X123457300Y-137500000D01*
X124210000Y-111400000D02*
X124210000Y-111324098D01*
X123150000Y-131700000D02*
X123150000Y-134936888D01*
X110000000Y-132000000D02*
X110000000Y-134500000D01*
X110000000Y-134500000D02*
X111000000Y-135500000D01*
X109500000Y-124500000D02*
X113500000Y-128500000D01*
X123150000Y-134936888D02*
X122720000Y-135366888D01*
X123457300Y-137500000D02*
X123457300Y-140627000D01*
X122720000Y-135366888D02*
X122720000Y-135500000D01*
X109500000Y-119500000D02*
X109500000Y-124500000D01*
%TO.N,/VCC*%
X137500000Y-117275000D02*
X137500000Y-120000000D01*
X119500000Y-120000000D02*
X117500000Y-122000000D01*
X137480000Y-121000000D02*
X137480000Y-120020000D01*
X126500000Y-120000000D02*
X119500000Y-120000000D01*
D28*
X126400000Y-123100000D02*
X126400000Y-124500000D01*
D27*
X126500000Y-120000000D02*
X137500000Y-120000000D01*
X137480000Y-120020000D02*
X137500000Y-120000000D01*
X126500000Y-120000000D02*
X126500000Y-123000000D01*
X117500000Y-127040000D02*
X113500000Y-131040000D01*
X139500000Y-119920000D02*
X141920000Y-117500000D01*
X137500000Y-120000000D02*
X139420000Y-120000000D01*
X126500000Y-123000000D02*
X126400000Y-123100000D01*
X139420000Y-120000000D02*
X141920000Y-117500000D01*
X117500000Y-122000000D02*
X117500000Y-127040000D01*
D28*
%TO.N,Net-(J1-VBUS)*%
X150225000Y-113500000D02*
X150225000Y-114275000D01*
X153770000Y-124270000D02*
X153770000Y-132290000D01*
X150225000Y-114275000D02*
X147000000Y-117500000D01*
X147000000Y-117500000D02*
X153770000Y-124270000D01*
%TO.N,Net-(D1-A)*%
X128710000Y-111400000D02*
X128710000Y-113490000D01*
X128710000Y-113490000D02*
X128200000Y-114000000D01*
%TO.N,Net-(D1-K)*%
X125100000Y-121900000D02*
X125100000Y-124500000D01*
X125500000Y-121500000D02*
X125100000Y-121900000D01*
X126000000Y-119000000D02*
X125500000Y-119000000D01*
X128200000Y-116800000D02*
X126000000Y-119000000D01*
%TO.N,Net-(D2-K)*%
X124450000Y-121550000D02*
X124500000Y-121500000D01*
X123700000Y-116800000D02*
X123700000Y-118200000D01*
X124450000Y-124500000D02*
X124450000Y-121550000D01*
X123700000Y-118200000D02*
X124500000Y-119000000D01*
%TO.N,Net-(D2-A)*%
X123190000Y-113490000D02*
X123700000Y-114000000D01*
X123190000Y-111400000D02*
X123190000Y-113490000D01*
%TO.N,/D-*%
X147448955Y-132709020D02*
X145551044Y-132709020D01*
X129000000Y-123139374D02*
X129000000Y-124500000D01*
X149925000Y-133635000D02*
X148374935Y-133635000D01*
X131394374Y-120745000D02*
X129000000Y-123139374D01*
X151270000Y-132290000D02*
X149925000Y-133635000D01*
X133105626Y-120745000D02*
X131394374Y-120745000D01*
X148374935Y-133635000D02*
X147448955Y-132709020D01*
X145310345Y-132949719D02*
X133105626Y-120745000D01*
X145551044Y-132709020D02*
X145310345Y-132949719D01*
%TO.N,/D+*%
X131605626Y-121255000D02*
X129650000Y-123210626D01*
X149925000Y-134145000D02*
X148163715Y-134145000D01*
X145762285Y-133219000D02*
X145310329Y-133670955D01*
X145310329Y-133670955D02*
X132894374Y-121255000D01*
X132894374Y-121255000D02*
X131605626Y-121255000D01*
X151270000Y-135490000D02*
X149925000Y-134145000D01*
X147237715Y-133219000D02*
X145762285Y-133219000D01*
X129650000Y-123210626D02*
X129650000Y-124500000D01*
X148163715Y-134145000D02*
X147237715Y-133219000D01*
%TO.N,Net-(J4-Pin_6)*%
X122500000Y-133700000D02*
X122500000Y-131700000D01*
X115837300Y-137862700D02*
X116200000Y-137500000D01*
X115837300Y-140373000D02*
X115837300Y-137862700D01*
X121700000Y-134500000D02*
X122500000Y-133700000D01*
%TO.N,Net-(J4-Pin_5)*%
X120000000Y-137500000D02*
X118377300Y-139122700D01*
X124700000Y-135000000D02*
X123800000Y-134100000D01*
X123800000Y-134100000D02*
X123800000Y-131700000D01*
X118377300Y-139122700D02*
X118377300Y-140627000D01*
%TO.N,Net-(J4-Pin_4)*%
X120917300Y-140373000D02*
X120917300Y-131982700D01*
X120917300Y-131982700D02*
X121200000Y-131700000D01*
%TO.N,Net-(J4-Pin_2)*%
X127700000Y-138670300D02*
X127700000Y-131700000D01*
X125997300Y-140373000D02*
X127700000Y-138670300D01*
%TO.N,Net-(U1-CBUS3)*%
X129650000Y-134140000D02*
X130000000Y-134490000D01*
X129650000Y-131700000D02*
X129650000Y-134140000D01*
%TD*%
M02*
