M48
; DRILL file {KiCad 9.0.2} date 2026-06-22T22:55:17+0800
; FORMAT={-:-/ absolute / metric / decimal}
; #@! TF.CreationDate,2026-06-22T22:55:17+08:00
; #@! TF.GenerationSoftware,Kicad,Pcbnew,9.0.2
; #@! TF.FileFunction,Plated,1,2,PTH
FMAT,2
METRIC
; #@! TA.AperFunction,Plated,PTH,ViaDrill
T1C0.330
; #@! TA.AperFunction,Plated,PTH,ComponentDrill
T2C0.800
; #@! TA.AperFunction,Plated,PTH,ComponentDrill
T3C0.920
; #@! TA.AperFunction,Plated,PTH,ComponentDrill
T4C1.016
; #@! TA.AperFunction,Plated,PTH,ComponentDrill
T5C2.300
%
G90
G05
T1
X120.5Y-130.5
X121.5Y-141.5
X122.0Y-131.5
X122.5Y-128.0
X128.5Y-140.0
X137.0Y-120.5
X137.5Y-132.5
X139.0Y-121.5
X140.0Y-139.0
X140.925Y-133.0
X142.0Y-125.0
X143.0Y-120.5
X144.0Y-133.0
X144.0Y-138.5
X144.02Y-122.02
X145.0Y-122.12
X145.0Y-125.5
X145.0Y-126.5
X146.5Y-132.5
X148.0Y-115.0
X148.0Y-122.0
X150.5Y-117.0
X152.0Y-115.0
X153.0Y-128.0
X153.5Y-119.0
X154.5Y-117.0
X154.5Y-131.5
X156.471Y-125.5
T2
X120.96Y-114.5
X126.04Y-114.5
T3
X119.0Y-125.8
X119.0Y-129.0
X121.5Y-125.8
X121.5Y-129.0
T4
X135.8Y-140.873
X138.34Y-141.127
X140.88Y-140.873
X143.42Y-141.127
X145.96Y-140.873
X148.5Y-141.0
X150.0Y-133.5
X152.54Y-133.5
X155.08Y-133.5
T5
X114.23Y-128.51
X126.27Y-128.51
M30
