%TF.GenerationSoftware,KiCad,Pcbnew,9.0.2*%
%TF.CreationDate,2026-06-22T22:54:54+08:00*%
%TF.ProjectId,usb_to_uart_converter,7573625f-746f-45f7-9561-72745f636f6e,2.1*%
%TF.SameCoordinates,Original*%
%TF.FileFunction,Copper,L2,Bot*%
%TF.FilePolarity,Positive*%
%FSLAX46Y46*%
G04 Gerber Fmt 4.6, Leading zero omitted, Abs format (unit mm)*
G04 Created by KiCad (PCBNEW 9.0.2) date 2026-06-22 22:54:54*
%MOMM*%
%LPD*%
G01*
G04 APERTURE LIST*
%TA.AperFunction,ComponentPad*%
%ADD10C,1.879600*%
%TD*%
%TA.AperFunction,ComponentPad*%
%ADD11C,2.000000*%
%TD*%
%TA.AperFunction,ComponentPad*%
%ADD12R,1.400000X1.400000*%
%TD*%
%TA.AperFunction,ComponentPad*%
%ADD13C,1.400000*%
%TD*%
%TA.AperFunction,ComponentPad*%
%ADD14C,3.000000*%
%TD*%
%TA.AperFunction,ViaPad*%
%ADD15C,0.680000*%
%TD*%
%TA.AperFunction,Conductor*%
%ADD16C,0.260000*%
%TD*%
%TA.AperFunction,Conductor*%
%ADD17C,0.520000*%
%TD*%
G04 APERTURE END LIST*
D10*
%TO.P,J4,1,Pin_1*%
%TO.N,GND*%
X148500000Y-141000000D03*
%TO.P,J4,2,Pin_2*%
%TO.N,Net-(J4-Pin_2)*%
X145960000Y-140873000D03*
%TO.P,J4,3,Pin_3*%
%TO.N,VCCIO*%
X143420000Y-141127000D03*
%TO.P,J4,4,Pin_4*%
%TO.N,Net-(J4-Pin_4)*%
X140880000Y-140873000D03*
%TO.P,J4,5,Pin_5*%
%TO.N,Net-(J4-Pin_5)*%
X138340000Y-141127000D03*
%TO.P,J4,6,Pin_6*%
%TO.N,Net-(J4-Pin_6)*%
X135800000Y-140873000D03*
%TD*%
D11*
%TO.P,FB1,1*%
%TO.N,Net-(J1-VBUS)*%
X120960000Y-114500000D03*
%TO.P,FB1,2*%
%TO.N,/VCC*%
X126040000Y-114500000D03*
%TD*%
D10*
%TO.P,J2,1,Pin_1*%
%TO.N,Net-(J2-Pin_1)*%
X150000000Y-133500000D03*
%TO.P,J2,2,Pin_2*%
%TO.N,VCCIO*%
X152540000Y-133500000D03*
%TO.P,J2,3,Pin_3*%
%TO.N,/VCC*%
X155080000Y-133500000D03*
%TD*%
D12*
%TO.P,J1,1,VBUS*%
%TO.N,Net-(J1-VBUS)*%
X121500000Y-125800000D03*
D13*
%TO.P,J1,2,D-*%
%TO.N,Net-(J1-D-)*%
X119000000Y-125800000D03*
%TO.P,J1,3,D+*%
%TO.N,Net-(J1-D+)*%
X119000000Y-129000000D03*
%TO.P,J1,4,GND*%
%TO.N,GND*%
X121500000Y-129000000D03*
D14*
%TO.P,J1,5,Shield*%
%TO.N,unconnected-(J1-Shield-Pad5)*%
X114230000Y-128510000D03*
%TO.N,unconnected-(J1-Shield-Pad5)_1*%
X126270000Y-128510000D03*
%TD*%
D15*
%TO.N,GND*%
X144020331Y-122020331D03*
X139000000Y-121500000D03*
%TO.N,Net-(J1-D+)*%
X145000000Y-126500000D03*
%TO.N,Net-(J1-D-)*%
X145000000Y-125500000D03*
%TO.N,Net-(J1-D+)*%
X122000000Y-131500000D03*
%TO.N,Net-(J1-D-)*%
X120500000Y-130500000D03*
%TO.N,GND*%
X128500000Y-140000000D03*
X121500000Y-141500000D03*
X122500000Y-128000000D03*
X142000000Y-125000000D03*
%TO.N,Net-(U1-CBUS3)*%
X146500000Y-132500000D03*
X148000000Y-115000000D03*
%TO.N,GND*%
X153500000Y-119000000D03*
X156471000Y-125500000D03*
X153000000Y-128000000D03*
%TO.N,Net-(J2-Pin_1)*%
X145000000Y-122120000D03*
X148000000Y-122000000D03*
%TO.N,/VCC*%
X137000000Y-120500000D03*
X143000000Y-120500000D03*
%TO.N,VCCIO*%
X150500000Y-117000000D03*
X152000000Y-115000000D03*
X154500000Y-117000000D03*
X154500000Y-131500000D03*
%TO.N,Net-(J4-Pin_5)*%
X140925000Y-133000000D03*
%TO.N,Net-(J4-Pin_4)*%
X137500000Y-132500000D03*
X140000000Y-139000000D03*
%TO.N,Net-(J4-Pin_2)*%
X144000000Y-133000000D03*
X144000000Y-138500000D03*
%TD*%
D16*
%TO.N,Net-(J1-D+)*%
X144500000Y-126500000D02*
X145000000Y-126500000D01*
X133500000Y-131500000D02*
X122000000Y-131500000D01*
X144500000Y-126500000D02*
X138500000Y-126500000D01*
X138500000Y-126500000D02*
X133500000Y-131500000D01*
%TO.N,Net-(J1-D-)*%
X137879000Y-125621000D02*
X138121000Y-125621000D01*
X133000000Y-130500000D02*
X137879000Y-125621000D01*
X120500000Y-130500000D02*
X133000000Y-130500000D01*
X144879000Y-125621000D02*
X145000000Y-125500000D01*
X138121000Y-125621000D02*
X144879000Y-125621000D01*
%TO.N,Net-(U1-CBUS3)*%
X149879000Y-116879000D02*
X148000000Y-115000000D01*
X149879000Y-129121000D02*
X149879000Y-116879000D01*
X146500000Y-132500000D02*
X149879000Y-129121000D01*
%TO.N,Net-(J2-Pin_1)*%
X147880000Y-122120000D02*
X145000000Y-122120000D01*
X148000000Y-122000000D02*
X147880000Y-122120000D01*
D17*
%TO.N,/VCC*%
X137000000Y-120500000D02*
X143000000Y-120500000D01*
%TO.N,VCCIO*%
X152000000Y-115000000D02*
X152000000Y-115500000D01*
X152000000Y-115500000D02*
X150500000Y-117000000D01*
X154500000Y-131500000D02*
X154500000Y-117000000D01*
D16*
%TO.N,Net-(J4-Pin_5)*%
X140925000Y-138953227D02*
X140925000Y-133000000D01*
X138751227Y-141127000D02*
X140925000Y-138953227D01*
X138340000Y-141127000D02*
X138751227Y-141127000D01*
%TO.N,Net-(J4-Pin_4)*%
X137500000Y-136500000D02*
X137500000Y-132500000D01*
X140000000Y-139000000D02*
X137500000Y-136500000D01*
%TO.N,Net-(J4-Pin_2)*%
X144000000Y-138500000D02*
X144000000Y-133000000D01*
%TD*%
%TA.AperFunction,Conductor*%
%TO.N,GND*%
G36*
X176941823Y-109024019D02*
G01*
X176987939Y-109076508D01*
X176999500Y-109128791D01*
X176999500Y-143879761D01*
X176979815Y-143946800D01*
X176927011Y-143992555D01*
X176876349Y-144003758D01*
X105125349Y-144495204D01*
X105058177Y-144475979D01*
X105012061Y-144423490D01*
X105000500Y-144371207D01*
X105000500Y-141881995D01*
X105699500Y-141881995D01*
X105699500Y-142118004D01*
X105699501Y-142118020D01*
X105730306Y-142352010D01*
X105791394Y-142579993D01*
X105881714Y-142798045D01*
X105881719Y-142798056D01*
X105915516Y-142856593D01*
X105999727Y-143002450D01*
X105999729Y-143002453D01*
X105999730Y-143002454D01*
X106143406Y-143189697D01*
X106143412Y-143189704D01*
X106310295Y-143356587D01*
X106310301Y-143356592D01*
X106497550Y-143500273D01*
X106628918Y-143576118D01*
X106701943Y-143618280D01*
X106701948Y-143618282D01*
X106701951Y-143618284D01*
X106920007Y-143708606D01*
X107147986Y-143769693D01*
X107381989Y-143800500D01*
X107381996Y-143800500D01*
X107618004Y-143800500D01*
X107618011Y-143800500D01*
X107852014Y-143769693D01*
X108079993Y-143708606D01*
X108298049Y-143618284D01*
X108502450Y-143500273D01*
X108689699Y-143356592D01*
X108856592Y-143189699D01*
X109000273Y-143002450D01*
X109118284Y-142798049D01*
X109208606Y-142579993D01*
X109269693Y-142352014D01*
X109300500Y-142118011D01*
X109300500Y-141881989D01*
X109269693Y-141647986D01*
X109208606Y-141420007D01*
X109118284Y-141201951D01*
X109118282Y-141201948D01*
X109118280Y-141201943D01*
X109076118Y-141128918D01*
X109000273Y-140997550D01*
X108950834Y-140933120D01*
X108871908Y-140830260D01*
X108871907Y-140830259D01*
X108856596Y-140810305D01*
X108856587Y-140810295D01*
X108805938Y-140759646D01*
X134359700Y-140759646D01*
X134359700Y-140986354D01*
X134361473Y-140997550D01*
X134395165Y-141210272D01*
X134465219Y-141425880D01*
X134465220Y-141425883D01*
X134529832Y-141552688D01*
X134563115Y-141618011D01*
X134568147Y-141627885D01*
X134701394Y-141811286D01*
X134701398Y-141811291D01*
X134861708Y-141971601D01*
X134861713Y-141971605D01*
X134990662Y-142065291D01*
X135045118Y-142104855D01*
X135177166Y-142172137D01*
X135247116Y-142207779D01*
X135247119Y-142207780D01*
X135301980Y-142225605D01*
X135462729Y-142277835D01*
X135686646Y-142313300D01*
X135686647Y-142313300D01*
X135913353Y-142313300D01*
X135913354Y-142313300D01*
X136137271Y-142277835D01*
X136352883Y-142207779D01*
X136554882Y-142104855D01*
X136738293Y-141971600D01*
X136892908Y-141816984D01*
X136954228Y-141783502D01*
X137023919Y-141788486D01*
X137079853Y-141830357D01*
X137091070Y-141848372D01*
X137108145Y-141881883D01*
X137241394Y-142065286D01*
X137241398Y-142065291D01*
X137401708Y-142225601D01*
X137401713Y-142225605D01*
X137551343Y-142334316D01*
X137585118Y-142358855D01*
X137674395Y-142404344D01*
X137787116Y-142461779D01*
X137787119Y-142461780D01*
X137894923Y-142496807D01*
X138002729Y-142531835D01*
X138226646Y-142567300D01*
X138226647Y-142567300D01*
X138453353Y-142567300D01*
X138453354Y-142567300D01*
X138677271Y-142531835D01*
X138892883Y-142461779D01*
X139094882Y-142358855D01*
X139278293Y-142225600D01*
X139438600Y-142065293D01*
X139571855Y-141881882D01*
X139588928Y-141848373D01*
X139636901Y-141797578D01*
X139704722Y-141780782D01*
X139770857Y-141803319D01*
X139787094Y-141816987D01*
X139941708Y-141971601D01*
X139941713Y-141971605D01*
X140070662Y-142065291D01*
X140125118Y-142104855D01*
X140257166Y-142172137D01*
X140327116Y-142207779D01*
X140327119Y-142207780D01*
X140381980Y-142225605D01*
X140542729Y-142277835D01*
X140766646Y-142313300D01*
X140766647Y-142313300D01*
X140993353Y-142313300D01*
X140993354Y-142313300D01*
X141217271Y-142277835D01*
X141432883Y-142207779D01*
X141634882Y-142104855D01*
X141818293Y-141971600D01*
X141972908Y-141816984D01*
X142034228Y-141783502D01*
X142103919Y-141788486D01*
X142159853Y-141830357D01*
X142171070Y-141848372D01*
X142188145Y-141881883D01*
X142321394Y-142065286D01*
X142321398Y-142065291D01*
X142481708Y-142225601D01*
X142481713Y-142225605D01*
X142631343Y-142334316D01*
X142665118Y-142358855D01*
X142754395Y-142404344D01*
X142867116Y-142461779D01*
X142867119Y-142461780D01*
X142974923Y-142496807D01*
X143082729Y-142531835D01*
X143306646Y-142567300D01*
X143306647Y-142567300D01*
X143533353Y-142567300D01*
X143533354Y-142567300D01*
X143757271Y-142531835D01*
X143972883Y-142461779D01*
X144174882Y-142358855D01*
X144358293Y-142225600D01*
X144518600Y-142065293D01*
X144651855Y-141881882D01*
X144668928Y-141848373D01*
X144716901Y-141797578D01*
X144784722Y-141780782D01*
X144850857Y-141803319D01*
X144867094Y-141816987D01*
X145021708Y-141971601D01*
X145021713Y-141971605D01*
X145150662Y-142065291D01*
X145205118Y-142104855D01*
X145337166Y-142172137D01*
X145407116Y-142207779D01*
X145407119Y-142207780D01*
X145461980Y-142225605D01*
X145622729Y-142277835D01*
X145846646Y-142313300D01*
X145846647Y-142313300D01*
X146073353Y-142313300D01*
X146073354Y-142313300D01*
X146297271Y-142277835D01*
X146512883Y-142207779D01*
X146714882Y-142104855D01*
X146898293Y-141971600D01*
X147058600Y-141811293D01*
X147083855Y-141776531D01*
X147139184Y-141733866D01*
X147208797Y-141727885D01*
X147270593Y-141760490D01*
X147284492Y-141776531D01*
X147401776Y-141937961D01*
X147562034Y-142098219D01*
X147562039Y-142098223D01*
X147745376Y-142231424D01*
X147947311Y-142334316D01*
X148162838Y-142404344D01*
X148250000Y-142418149D01*
X148250000Y-141442251D01*
X148303919Y-141473381D01*
X148433120Y-141508000D01*
X148566880Y-141508000D01*
X148696081Y-141473381D01*
X148750000Y-141442251D01*
X148750000Y-142418148D01*
X148837161Y-142404344D01*
X149052688Y-142334316D01*
X149254623Y-142231424D01*
X149437960Y-142098223D01*
X149437965Y-142098219D01*
X149598219Y-141937965D01*
X149598223Y-141937960D01*
X149731424Y-141754623D01*
X149834316Y-141552688D01*
X149889778Y-141381995D01*
X172699500Y-141381995D01*
X172699500Y-141618004D01*
X172699501Y-141618020D01*
X172730306Y-141852010D01*
X172791394Y-142079993D01*
X172881714Y-142298045D01*
X172881719Y-142298056D01*
X172916822Y-142358855D01*
X172999727Y-142502450D01*
X172999729Y-142502453D01*
X172999730Y-142502454D01*
X173143406Y-142689697D01*
X173143412Y-142689704D01*
X173310295Y-142856587D01*
X173310301Y-142856592D01*
X173497550Y-143000273D01*
X173628918Y-143076118D01*
X173701943Y-143118280D01*
X173701948Y-143118282D01*
X173701951Y-143118284D01*
X173920007Y-143208606D01*
X174147986Y-143269693D01*
X174381989Y-143300500D01*
X174381996Y-143300500D01*
X174618004Y-143300500D01*
X174618011Y-143300500D01*
X174852014Y-143269693D01*
X175079993Y-143208606D01*
X175298049Y-143118284D01*
X175502450Y-143000273D01*
X175689699Y-142856592D01*
X175856592Y-142689699D01*
X176000273Y-142502450D01*
X176118284Y-142298049D01*
X176208606Y-142079993D01*
X176269693Y-141852014D01*
X176300500Y-141618011D01*
X176300500Y-141381989D01*
X176269693Y-141147986D01*
X176208606Y-140920007D01*
X176118284Y-140701951D01*
X176118282Y-140701948D01*
X176118280Y-140701943D01*
X176076118Y-140628918D01*
X176000273Y-140497550D01*
X175911389Y-140381714D01*
X175856593Y-140310302D01*
X175856587Y-140310295D01*
X175689704Y-140143412D01*
X175689697Y-140143406D01*
X175502454Y-139999730D01*
X175502453Y-139999729D01*
X175502450Y-139999727D01*
X175420957Y-139952677D01*
X175298056Y-139881719D01*
X175298045Y-139881714D01*
X175079993Y-139791394D01*
X174852010Y-139730306D01*
X174618020Y-139699501D01*
X174618017Y-139699500D01*
X174618011Y-139699500D01*
X174381989Y-139699500D01*
X174381983Y-139699500D01*
X174381979Y-139699501D01*
X174147989Y-139730306D01*
X173920006Y-139791394D01*
X173701954Y-139881714D01*
X173701943Y-139881719D01*
X173497545Y-139999730D01*
X173310302Y-140143406D01*
X173310295Y-140143412D01*
X173143412Y-140310295D01*
X173143406Y-140310302D01*
X172999730Y-140497545D01*
X172881719Y-140701943D01*
X172881714Y-140701954D01*
X172791394Y-140920006D01*
X172730306Y-141147989D01*
X172699501Y-141381979D01*
X172699500Y-141381995D01*
X149889778Y-141381995D01*
X149903549Y-141339612D01*
X149904346Y-141337158D01*
X149904346Y-141337155D01*
X149918151Y-141250000D01*
X148942251Y-141250000D01*
X148973381Y-141196081D01*
X149008000Y-141066880D01*
X149008000Y-140933120D01*
X148973381Y-140803919D01*
X148942251Y-140750000D01*
X149918151Y-140750000D01*
X149904346Y-140662844D01*
X149904346Y-140662841D01*
X149834316Y-140447311D01*
X149731424Y-140245376D01*
X149598223Y-140062039D01*
X149598219Y-140062034D01*
X149437965Y-139901780D01*
X149437960Y-139901776D01*
X149254623Y-139768575D01*
X149052688Y-139665683D01*
X148837156Y-139595653D01*
X148750000Y-139581848D01*
X148750000Y-140557748D01*
X148696081Y-140526619D01*
X148566880Y-140492000D01*
X148433120Y-140492000D01*
X148303919Y-140526619D01*
X148250000Y-140557748D01*
X148250000Y-139581848D01*
X148162844Y-139595653D01*
X148162841Y-139595653D01*
X147947311Y-139665683D01*
X147745376Y-139768575D01*
X147562039Y-139901776D01*
X147562034Y-139901780D01*
X147401780Y-140062034D01*
X147376762Y-140096469D01*
X147321431Y-140139135D01*
X147251818Y-140145113D01*
X147190023Y-140112507D01*
X147176126Y-140096468D01*
X147058605Y-139934712D01*
X146898291Y-139774398D01*
X146898286Y-139774394D01*
X146714885Y-139641147D01*
X146714884Y-139641146D01*
X146714882Y-139641145D01*
X146650166Y-139608170D01*
X146512883Y-139538220D01*
X146512880Y-139538219D01*
X146297272Y-139468165D01*
X146138202Y-139442971D01*
X146073354Y-139432700D01*
X145846646Y-139432700D01*
X145781810Y-139442969D01*
X145622727Y-139468165D01*
X145407119Y-139538219D01*
X145407116Y-139538220D01*
X145205114Y-139641147D01*
X145021713Y-139774394D01*
X145021708Y-139774398D01*
X144861398Y-139934708D01*
X144861394Y-139934713D01*
X144728146Y-140118114D01*
X144711070Y-140151628D01*
X144663094Y-140202423D01*
X144595273Y-140219217D01*
X144529138Y-140196678D01*
X144512905Y-140183012D01*
X144358291Y-140028398D01*
X144358286Y-140028394D01*
X144174885Y-139895147D01*
X144174884Y-139895146D01*
X144174882Y-139895145D01*
X144103496Y-139858772D01*
X143972883Y-139792220D01*
X143972880Y-139792219D01*
X143757272Y-139722165D01*
X143614170Y-139699500D01*
X143533354Y-139686700D01*
X143306646Y-139686700D01*
X143232007Y-139698521D01*
X143082727Y-139722165D01*
X142867119Y-139792219D01*
X142867116Y-139792220D01*
X142665114Y-139895147D01*
X142481714Y-140028393D01*
X142327094Y-140183013D01*
X142265771Y-140216497D01*
X142196079Y-140211513D01*
X142140146Y-140169641D01*
X142128928Y-140151626D01*
X142111855Y-140118118D01*
X142111853Y-140118115D01*
X142111852Y-140118113D01*
X141978605Y-139934713D01*
X141978601Y-139934708D01*
X141818291Y-139774398D01*
X141818286Y-139774394D01*
X141634885Y-139641147D01*
X141634884Y-139641146D01*
X141634882Y-139641145D01*
X141501816Y-139573344D01*
X141451501Y-139547707D01*
X141439143Y-139536035D01*
X141423895Y-139528527D01*
X141414269Y-139512543D01*
X141400705Y-139499732D01*
X141396619Y-139483233D01*
X141387851Y-139468673D01*
X141388394Y-139450022D01*
X141383910Y-139431911D01*
X141389404Y-139415420D01*
X141389888Y-139398833D01*
X141402763Y-139375321D01*
X141405480Y-139367169D01*
X141411472Y-139358416D01*
X141414742Y-139355147D01*
X141456104Y-139293244D01*
X141483742Y-139251882D01*
X141507668Y-139194119D01*
X141531271Y-139137137D01*
X141543027Y-139078033D01*
X141551481Y-139035535D01*
X141551481Y-139035530D01*
X141555500Y-139015327D01*
X141555500Y-138891128D01*
X141555500Y-133606866D01*
X141575185Y-133539827D01*
X141576398Y-133537975D01*
X141669838Y-133398132D01*
X141669838Y-133398131D01*
X141669842Y-133398126D01*
X141733200Y-133245165D01*
X141733265Y-133244842D01*
X141765499Y-133082786D01*
X141765500Y-133082784D01*
X141765500Y-132917215D01*
X141765499Y-132917213D01*
X143159500Y-132917213D01*
X143159500Y-133082786D01*
X143191797Y-133245157D01*
X143191800Y-133245166D01*
X143255154Y-133398119D01*
X143255161Y-133398132D01*
X143348602Y-133537975D01*
X143369480Y-133604652D01*
X143369500Y-133606866D01*
X143369500Y-137893133D01*
X143349815Y-137960172D01*
X143348602Y-137962024D01*
X143255161Y-138101867D01*
X143255154Y-138101880D01*
X143191800Y-138254833D01*
X143191797Y-138254842D01*
X143159500Y-138417213D01*
X143159500Y-138582786D01*
X143191797Y-138745157D01*
X143191800Y-138745166D01*
X143255154Y-138898119D01*
X143255161Y-138898132D01*
X143347140Y-139035787D01*
X143347143Y-139035791D01*
X143464208Y-139152856D01*
X143464212Y-139152859D01*
X143601867Y-139244838D01*
X143601880Y-139244845D01*
X143716594Y-139292360D01*
X143754835Y-139308200D01*
X143754837Y-139308200D01*
X143754842Y-139308202D01*
X143917213Y-139340499D01*
X143917216Y-139340500D01*
X143917218Y-139340500D01*
X144082784Y-139340500D01*
X144082785Y-139340499D01*
X144136909Y-139329733D01*
X144245157Y-139308202D01*
X144245160Y-139308200D01*
X144245165Y-139308200D01*
X144398126Y-139244842D01*
X144535788Y-139152859D01*
X144652859Y-139035788D01*
X144744842Y-138898126D01*
X144808200Y-138745165D01*
X144840500Y-138582782D01*
X144840500Y-138417218D01*
X144840500Y-138417215D01*
X144840499Y-138417213D01*
X144808202Y-138254842D01*
X144808199Y-138254833D01*
X144744845Y-138101880D01*
X144744838Y-138101867D01*
X144651398Y-137962024D01*
X144630520Y-137895346D01*
X144630500Y-137893133D01*
X144630500Y-133606866D01*
X144650185Y-133539827D01*
X144651398Y-133537975D01*
X144744838Y-133398132D01*
X144744838Y-133398131D01*
X144744842Y-133398126D01*
X144749597Y-133386646D01*
X148559700Y-133386646D01*
X148559700Y-133613353D01*
X148595165Y-133837272D01*
X148665219Y-134052880D01*
X148665220Y-134052883D01*
X148768147Y-134254885D01*
X148901394Y-134438286D01*
X148901398Y-134438291D01*
X149061708Y-134598601D01*
X149061713Y-134598605D01*
X149221684Y-134714829D01*
X149245118Y-134731855D01*
X149377166Y-134799137D01*
X149447116Y-134834779D01*
X149447119Y-134834780D01*
X149554923Y-134869807D01*
X149662729Y-134904835D01*
X149886646Y-134940300D01*
X149886647Y-134940300D01*
X150113353Y-134940300D01*
X150113354Y-134940300D01*
X150337271Y-134904835D01*
X150552883Y-134834779D01*
X150754882Y-134731855D01*
X150938293Y-134598600D01*
X151098600Y-134438293D01*
X151169682Y-134340456D01*
X151225011Y-134297791D01*
X151294624Y-134291812D01*
X151356420Y-134324417D01*
X151370315Y-134340453D01*
X151441395Y-134438286D01*
X151441400Y-134438293D01*
X151601708Y-134598601D01*
X151601713Y-134598605D01*
X151761684Y-134714829D01*
X151785118Y-134731855D01*
X151917166Y-134799137D01*
X151987116Y-134834779D01*
X151987119Y-134834780D01*
X152094923Y-134869807D01*
X152202729Y-134904835D01*
X152426646Y-134940300D01*
X152426647Y-134940300D01*
X152653353Y-134940300D01*
X152653354Y-134940300D01*
X152877271Y-134904835D01*
X153092883Y-134834779D01*
X153294882Y-134731855D01*
X153478293Y-134598600D01*
X153638600Y-134438293D01*
X153709682Y-134340456D01*
X153765011Y-134297791D01*
X153834624Y-134291812D01*
X153896420Y-134324417D01*
X153910315Y-134340453D01*
X153981395Y-134438286D01*
X153981400Y-134438293D01*
X154141708Y-134598601D01*
X154141713Y-134598605D01*
X154301684Y-134714829D01*
X154325118Y-134731855D01*
X154457166Y-134799137D01*
X154527116Y-134834779D01*
X154527119Y-134834780D01*
X154634923Y-134869807D01*
X154742729Y-134904835D01*
X154966646Y-134940300D01*
X154966647Y-134940300D01*
X155193353Y-134940300D01*
X155193354Y-134940300D01*
X155417271Y-134904835D01*
X155632883Y-134834779D01*
X155834882Y-134731855D01*
X156018293Y-134598600D01*
X156178600Y-134438293D01*
X156311855Y-134254882D01*
X156414779Y-134052883D01*
X156484835Y-133837271D01*
X156520300Y-133613354D01*
X156520300Y-133386646D01*
X156484835Y-133162729D01*
X156414779Y-132947117D01*
X156414779Y-132947116D01*
X156379137Y-132877166D01*
X156311855Y-132745118D01*
X156280679Y-132702208D01*
X156178605Y-132561713D01*
X156178601Y-132561708D01*
X156018291Y-132401398D01*
X156018286Y-132401394D01*
X155834885Y-132268147D01*
X155834884Y-132268146D01*
X155834882Y-132268145D01*
X155770166Y-132235170D01*
X155632883Y-132165220D01*
X155632880Y-132165219D01*
X155417272Y-132095165D01*
X155333299Y-132081865D01*
X155270164Y-132051936D01*
X155233233Y-131992624D01*
X155234231Y-131922762D01*
X155243339Y-131900939D01*
X155244842Y-131898126D01*
X155248880Y-131888378D01*
X155308200Y-131745165D01*
X155318816Y-131691798D01*
X155340499Y-131582786D01*
X155340500Y-131582784D01*
X155340500Y-131417215D01*
X155340499Y-131417213D01*
X155308202Y-131254842D01*
X155308199Y-131254833D01*
X155299117Y-131232908D01*
X155269938Y-131162463D01*
X155260500Y-131115012D01*
X155260500Y-117384988D01*
X155269939Y-117337535D01*
X155283103Y-117305754D01*
X155308200Y-117245165D01*
X155340500Y-117082782D01*
X155340500Y-116917218D01*
X155340500Y-116917215D01*
X155340499Y-116917213D01*
X155308202Y-116754842D01*
X155308199Y-116754833D01*
X155244845Y-116601880D01*
X155244838Y-116601867D01*
X155152859Y-116464212D01*
X155152856Y-116464208D01*
X155035791Y-116347143D01*
X155035787Y-116347140D01*
X154898132Y-116255161D01*
X154898119Y-116255154D01*
X154745166Y-116191800D01*
X154745157Y-116191797D01*
X154582785Y-116159500D01*
X154582782Y-116159500D01*
X154417218Y-116159500D01*
X154417215Y-116159500D01*
X154254842Y-116191797D01*
X154254833Y-116191800D01*
X154101880Y-116255154D01*
X154101867Y-116255161D01*
X153964212Y-116347140D01*
X153964208Y-116347143D01*
X153847143Y-116464208D01*
X153847140Y-116464212D01*
X153755161Y-116601867D01*
X153755154Y-116601880D01*
X153691800Y-116754833D01*
X153691797Y-116754842D01*
X153659500Y-116917213D01*
X153659500Y-117082786D01*
X153691798Y-117245157D01*
X153691800Y-117245165D01*
X153730061Y-117337535D01*
X153739500Y-117384988D01*
X153739500Y-131115012D01*
X153730061Y-131162464D01*
X153691800Y-131254833D01*
X153691797Y-131254842D01*
X153659500Y-131417213D01*
X153659500Y-131582786D01*
X153691797Y-131745157D01*
X153691800Y-131745166D01*
X153755154Y-131898119D01*
X153755161Y-131898132D01*
X153847140Y-132035787D01*
X153847143Y-132035791D01*
X153964208Y-132152856D01*
X153964212Y-132152859D01*
X154093971Y-132239562D01*
X154138776Y-132293174D01*
X154147483Y-132362499D01*
X154117328Y-132425527D01*
X154112762Y-132430345D01*
X153981393Y-132561714D01*
X153910318Y-132659542D01*
X153854988Y-132702208D01*
X153785375Y-132708187D01*
X153723580Y-132675582D01*
X153709682Y-132659542D01*
X153638605Y-132561713D01*
X153638601Y-132561708D01*
X153478291Y-132401398D01*
X153478286Y-132401394D01*
X153294885Y-132268147D01*
X153294884Y-132268146D01*
X153294882Y-132268145D01*
X153230166Y-132235170D01*
X153092883Y-132165220D01*
X153092880Y-132165219D01*
X152877272Y-132095165D01*
X152765312Y-132077432D01*
X152653354Y-132059700D01*
X152426646Y-132059700D01*
X152352007Y-132071521D01*
X152202727Y-132095165D01*
X151987119Y-132165219D01*
X151987116Y-132165220D01*
X151785114Y-132268147D01*
X151601713Y-132401394D01*
X151601708Y-132401398D01*
X151441398Y-132561708D01*
X151441394Y-132561713D01*
X151370318Y-132659542D01*
X151314988Y-132702208D01*
X151245375Y-132708187D01*
X151183580Y-132675582D01*
X151169682Y-132659542D01*
X151098605Y-132561713D01*
X151098601Y-132561708D01*
X150938291Y-132401398D01*
X150938286Y-132401394D01*
X150754885Y-132268147D01*
X150754884Y-132268146D01*
X150754882Y-132268145D01*
X150690166Y-132235170D01*
X150552883Y-132165220D01*
X150552880Y-132165219D01*
X150337272Y-132095165D01*
X150225312Y-132077432D01*
X150113354Y-132059700D01*
X149886646Y-132059700D01*
X149812007Y-132071521D01*
X149662727Y-132095165D01*
X149447119Y-132165219D01*
X149447116Y-132165220D01*
X149245114Y-132268147D01*
X149061713Y-132401394D01*
X149061708Y-132401398D01*
X148901398Y-132561708D01*
X148901394Y-132561713D01*
X148768147Y-132745114D01*
X148665220Y-132947116D01*
X148665219Y-132947119D01*
X148595165Y-133162727D01*
X148559700Y-133386646D01*
X144749597Y-133386646D01*
X144808200Y-133245165D01*
X144808265Y-133244842D01*
X144840499Y-133082786D01*
X144840500Y-133082784D01*
X144840500Y-132917215D01*
X144840499Y-132917213D01*
X144808202Y-132754842D01*
X144808199Y-132754833D01*
X144804194Y-132745165D01*
X144768729Y-132659542D01*
X144744845Y-132601880D01*
X144744838Y-132601867D01*
X144663420Y-132480017D01*
X144652859Y-132464212D01*
X144652856Y-132464208D01*
X144605861Y-132417213D01*
X145659500Y-132417213D01*
X145659500Y-132582786D01*
X145691797Y-132745157D01*
X145691800Y-132745166D01*
X145755154Y-132898119D01*
X145755161Y-132898132D01*
X145847140Y-133035787D01*
X145847143Y-133035791D01*
X145964208Y-133152856D01*
X145964212Y-133152859D01*
X146101867Y-133244838D01*
X146101880Y-133244845D01*
X146216594Y-133292360D01*
X146254835Y-133308200D01*
X146254837Y-133308200D01*
X146254842Y-133308202D01*
X146417213Y-133340499D01*
X146417216Y-133340500D01*
X146417218Y-133340500D01*
X146582784Y-133340500D01*
X146582785Y-133340499D01*
X146636909Y-133329733D01*
X146745157Y-133308202D01*
X146745160Y-133308200D01*
X146745165Y-133308200D01*
X146807928Y-133282202D01*
X146844118Y-133267213D01*
X146898119Y-133244845D01*
X146898119Y-133244844D01*
X146898126Y-133244842D01*
X147035788Y-133152859D01*
X147152859Y-133035788D01*
X147244842Y-132898126D01*
X147308200Y-132745165D01*
X147308210Y-132745118D01*
X147341014Y-132580200D01*
X147373399Y-132518289D01*
X147374893Y-132516767D01*
X150368742Y-129522920D01*
X150437743Y-129419654D01*
X150485271Y-129304910D01*
X150509501Y-129183099D01*
X150509501Y-129058900D01*
X150509501Y-129053790D01*
X150509500Y-129053764D01*
X150509500Y-117956841D01*
X150529185Y-117889802D01*
X150581989Y-117844047D01*
X150609309Y-117835224D01*
X150745157Y-117808202D01*
X150745160Y-117808200D01*
X150745165Y-117808200D01*
X150898126Y-117744842D01*
X151035788Y-117652859D01*
X151152859Y-117535788D01*
X151244842Y-117398126D01*
X151283103Y-117305751D01*
X151309980Y-117265527D01*
X152590719Y-115984791D01*
X152673947Y-115860232D01*
X152731275Y-115721830D01*
X152760500Y-115574903D01*
X152760500Y-115425098D01*
X152760500Y-115384988D01*
X152769939Y-115337535D01*
X152791106Y-115286433D01*
X152808200Y-115245165D01*
X152840500Y-115082782D01*
X152840500Y-114917218D01*
X152840500Y-114917215D01*
X152840499Y-114917213D01*
X152808202Y-114754842D01*
X152808199Y-114754833D01*
X152744845Y-114601880D01*
X152744838Y-114601867D01*
X152652859Y-114464212D01*
X152652856Y-114464208D01*
X152535791Y-114347143D01*
X152535787Y-114347140D01*
X152398132Y-114255161D01*
X152398119Y-114255154D01*
X152245166Y-114191800D01*
X152245157Y-114191797D01*
X152082785Y-114159500D01*
X152082782Y-114159500D01*
X151917218Y-114159500D01*
X151917215Y-114159500D01*
X151754842Y-114191797D01*
X151754833Y-114191800D01*
X151601880Y-114255154D01*
X151601867Y-114255161D01*
X151464212Y-114347140D01*
X151464208Y-114347143D01*
X151347143Y-114464208D01*
X151347140Y-114464212D01*
X151255161Y-114601867D01*
X151255154Y-114601880D01*
X151191800Y-114754833D01*
X151191797Y-114754842D01*
X151159500Y-114917213D01*
X151159500Y-115082786D01*
X151176799Y-115169753D01*
X151170572Y-115239345D01*
X151142863Y-115281625D01*
X150245756Y-116178733D01*
X150184433Y-116212218D01*
X150114742Y-116207234D01*
X150070394Y-116178733D01*
X148874950Y-114983289D01*
X148841465Y-114921966D01*
X148841014Y-114919799D01*
X148808202Y-114754842D01*
X148808199Y-114754833D01*
X148744845Y-114601880D01*
X148744838Y-114601867D01*
X148652859Y-114464212D01*
X148652856Y-114464208D01*
X148535791Y-114347143D01*
X148535787Y-114347140D01*
X148398132Y-114255161D01*
X148398119Y-114255154D01*
X148245166Y-114191800D01*
X148245157Y-114191797D01*
X148082785Y-114159500D01*
X148082782Y-114159500D01*
X147917218Y-114159500D01*
X147917215Y-114159500D01*
X147754842Y-114191797D01*
X147754833Y-114191800D01*
X147601880Y-114255154D01*
X147601867Y-114255161D01*
X147464212Y-114347140D01*
X147464208Y-114347143D01*
X147347143Y-114464208D01*
X147347140Y-114464212D01*
X147255161Y-114601867D01*
X147255154Y-114601880D01*
X147191800Y-114754833D01*
X147191797Y-114754842D01*
X147159500Y-114917213D01*
X147159500Y-115082786D01*
X147191797Y-115245157D01*
X147191800Y-115245166D01*
X147255154Y-115398119D01*
X147255161Y-115398132D01*
X147347140Y-115535787D01*
X147347143Y-115535791D01*
X147464208Y-115652856D01*
X147464212Y-115652859D01*
X147601867Y-115744838D01*
X147601880Y-115744845D01*
X147694822Y-115783342D01*
X147754835Y-115808200D01*
X147754837Y-115808200D01*
X147754842Y-115808202D01*
X147919799Y-115841014D01*
X147981710Y-115873399D01*
X147983289Y-115874950D01*
X149212181Y-117103842D01*
X149245666Y-117165165D01*
X149248500Y-117191523D01*
X149248500Y-128808476D01*
X149228815Y-128875515D01*
X149212181Y-128896157D01*
X146483289Y-131625049D01*
X146421966Y-131658534D01*
X146419800Y-131658985D01*
X146254841Y-131691798D01*
X146254833Y-131691800D01*
X146101880Y-131755154D01*
X146101867Y-131755161D01*
X145964212Y-131847140D01*
X145964208Y-131847143D01*
X145847143Y-131964208D01*
X145847140Y-131964212D01*
X145755161Y-132101867D01*
X145755154Y-132101880D01*
X145691800Y-132254833D01*
X145691797Y-132254842D01*
X145659500Y-132417213D01*
X144605861Y-132417213D01*
X144535791Y-132347143D01*
X144535787Y-132347140D01*
X144398132Y-132255161D01*
X144398119Y-132255154D01*
X144245166Y-132191800D01*
X144245157Y-132191797D01*
X144082785Y-132159500D01*
X144082782Y-132159500D01*
X143917218Y-132159500D01*
X143917215Y-132159500D01*
X143754842Y-132191797D01*
X143754833Y-132191800D01*
X143601880Y-132255154D01*
X143601867Y-132255161D01*
X143464212Y-132347140D01*
X143464208Y-132347143D01*
X143347143Y-132464208D01*
X143347140Y-132464212D01*
X143255161Y-132601867D01*
X143255154Y-132601880D01*
X143191800Y-132754833D01*
X143191797Y-132754842D01*
X143159500Y-132917213D01*
X141765499Y-132917213D01*
X141733202Y-132754842D01*
X141733199Y-132754833D01*
X141729194Y-132745165D01*
X141693729Y-132659542D01*
X141669845Y-132601880D01*
X141669838Y-132601867D01*
X141577859Y-132464212D01*
X141577856Y-132464208D01*
X141460791Y-132347143D01*
X141460787Y-132347140D01*
X141323132Y-132255161D01*
X141323119Y-132255154D01*
X141170166Y-132191800D01*
X141170157Y-132191797D01*
X141007785Y-132159500D01*
X141007782Y-132159500D01*
X140842218Y-132159500D01*
X140842215Y-132159500D01*
X140679842Y-132191797D01*
X140679833Y-132191800D01*
X140526880Y-132255154D01*
X140526867Y-132255161D01*
X140389212Y-132347140D01*
X140389208Y-132347143D01*
X140272143Y-132464208D01*
X140272140Y-132464212D01*
X140180161Y-132601867D01*
X140180154Y-132601880D01*
X140116800Y-132754833D01*
X140116797Y-132754842D01*
X140084500Y-132917213D01*
X140084500Y-133082786D01*
X140116797Y-133245157D01*
X140116800Y-133245166D01*
X140180154Y-133398119D01*
X140180161Y-133398132D01*
X140273602Y-133537975D01*
X140294480Y-133604652D01*
X140294500Y-133606866D01*
X140294500Y-138050518D01*
X140288564Y-138070732D01*
X140287437Y-138091770D01*
X140278917Y-138103583D01*
X140274815Y-138117557D01*
X140258894Y-138131352D01*
X140246571Y-138148442D01*
X140233017Y-138153774D01*
X140222011Y-138163312D01*
X140201157Y-138166310D01*
X140181553Y-138174024D01*
X140156751Y-138172695D01*
X140152853Y-138173256D01*
X140146310Y-138172136D01*
X140080203Y-138158987D01*
X140018291Y-138126602D01*
X140016712Y-138125050D01*
X138166819Y-136275157D01*
X138133334Y-136213834D01*
X138130500Y-136187476D01*
X138130500Y-133106866D01*
X138150185Y-133039827D01*
X138151398Y-133037975D01*
X138244838Y-132898132D01*
X138244838Y-132898131D01*
X138244842Y-132898126D01*
X138308200Y-132745165D01*
X138308210Y-132745118D01*
X138340499Y-132582786D01*
X138340500Y-132582784D01*
X138340500Y-132417215D01*
X138340499Y-132417213D01*
X138308202Y-132254842D01*
X138308199Y-132254833D01*
X138244845Y-132101880D01*
X138244838Y-132101867D01*
X138152859Y-131964212D01*
X138152856Y-131964208D01*
X138035791Y-131847143D01*
X138035787Y-131847140D01*
X137898132Y-131755161D01*
X137898119Y-131755154D01*
X137745166Y-131691800D01*
X137745157Y-131691797D01*
X137582785Y-131659500D01*
X137582782Y-131659500D01*
X137417218Y-131659500D01*
X137417215Y-131659500D01*
X137254842Y-131691797D01*
X137254833Y-131691800D01*
X137101880Y-131755154D01*
X137101867Y-131755161D01*
X136964212Y-131847140D01*
X136964208Y-131847143D01*
X136847143Y-131964208D01*
X136847140Y-131964212D01*
X136755161Y-132101867D01*
X136755154Y-132101880D01*
X136691800Y-132254833D01*
X136691797Y-132254842D01*
X136659500Y-132417213D01*
X136659500Y-132582786D01*
X136691797Y-132745157D01*
X136691800Y-132745166D01*
X136755154Y-132898119D01*
X136755161Y-132898132D01*
X136848602Y-133037975D01*
X136869480Y-133104652D01*
X136869500Y-133106866D01*
X136869500Y-136562103D01*
X136893727Y-136683902D01*
X136893730Y-136683912D01*
X136941256Y-136798650D01*
X136941261Y-136798660D01*
X137010256Y-136901918D01*
X137010257Y-136901919D01*
X137010258Y-136901920D01*
X137098080Y-136989742D01*
X137098081Y-136989742D01*
X137105148Y-136996809D01*
X137105147Y-136996809D01*
X137105151Y-136996812D01*
X139125049Y-139016710D01*
X139158534Y-139078033D01*
X139158985Y-139080199D01*
X139191798Y-139245158D01*
X139191800Y-139245166D01*
X139255154Y-139398119D01*
X139255161Y-139398132D01*
X139332114Y-139513299D01*
X139341601Y-139543598D01*
X139352696Y-139573344D01*
X139351966Y-139576699D01*
X139352992Y-139579976D01*
X139344592Y-139610596D01*
X139337844Y-139641617D01*
X139335063Y-139645330D01*
X139334508Y-139647357D01*
X139316693Y-139669871D01*
X139156293Y-139830271D01*
X139094970Y-139863756D01*
X139025278Y-139858772D01*
X139012318Y-139853075D01*
X138892888Y-139792223D01*
X138892880Y-139792219D01*
X138677272Y-139722165D01*
X138534170Y-139699500D01*
X138453354Y-139686700D01*
X138226646Y-139686700D01*
X138152007Y-139698521D01*
X138002727Y-139722165D01*
X137787119Y-139792219D01*
X137787116Y-139792220D01*
X137585114Y-139895147D01*
X137401714Y-140028393D01*
X137247094Y-140183013D01*
X137185771Y-140216497D01*
X137116079Y-140211513D01*
X137060146Y-140169641D01*
X137048928Y-140151626D01*
X137031855Y-140118118D01*
X137031853Y-140118115D01*
X137031852Y-140118113D01*
X136898605Y-139934713D01*
X136898601Y-139934708D01*
X136738291Y-139774398D01*
X136738286Y-139774394D01*
X136554885Y-139641147D01*
X136554884Y-139641146D01*
X136554882Y-139641145D01*
X136490166Y-139608170D01*
X136352883Y-139538220D01*
X136352880Y-139538219D01*
X136137272Y-139468165D01*
X135978202Y-139442971D01*
X135913354Y-139432700D01*
X135686646Y-139432700D01*
X135621810Y-139442969D01*
X135462727Y-139468165D01*
X135247119Y-139538219D01*
X135247116Y-139538220D01*
X135045114Y-139641147D01*
X134861713Y-139774394D01*
X134861708Y-139774398D01*
X134701398Y-139934708D01*
X134701394Y-139934713D01*
X134568147Y-140118114D01*
X134465220Y-140320116D01*
X134465219Y-140320119D01*
X134395165Y-140535727D01*
X134361228Y-140750000D01*
X134359700Y-140759646D01*
X108805938Y-140759646D01*
X108689704Y-140643412D01*
X108689697Y-140643406D01*
X108502454Y-140499730D01*
X108502453Y-140499729D01*
X108502450Y-140499727D01*
X108411663Y-140447311D01*
X108298056Y-140381719D01*
X108298045Y-140381714D01*
X108079993Y-140291394D01*
X107852010Y-140230306D01*
X107618020Y-140199501D01*
X107618017Y-140199500D01*
X107618011Y-140199500D01*
X107381989Y-140199500D01*
X107381983Y-140199500D01*
X107381979Y-140199501D01*
X107147989Y-140230306D01*
X106920006Y-140291394D01*
X106701954Y-140381714D01*
X106701943Y-140381719D01*
X106497545Y-140499730D01*
X106310302Y-140643406D01*
X106310295Y-140643412D01*
X106143412Y-140810295D01*
X106143406Y-140810302D01*
X105999730Y-140997545D01*
X105881719Y-141201943D01*
X105881714Y-141201954D01*
X105791394Y-141420006D01*
X105730306Y-141647989D01*
X105699501Y-141881979D01*
X105699500Y-141881995D01*
X105000500Y-141881995D01*
X105000500Y-128378872D01*
X112229500Y-128378872D01*
X112229500Y-128641127D01*
X112251533Y-128808476D01*
X112263730Y-128901116D01*
X112323071Y-129122580D01*
X112331602Y-129154418D01*
X112331605Y-129154428D01*
X112431953Y-129396690D01*
X112431958Y-129396700D01*
X112563075Y-129623803D01*
X112722718Y-129831851D01*
X112722726Y-129831860D01*
X112908140Y-130017274D01*
X112908148Y-130017281D01*
X113116196Y-130176924D01*
X113343299Y-130308041D01*
X113343309Y-130308046D01*
X113585571Y-130408394D01*
X113585581Y-130408398D01*
X113838884Y-130476270D01*
X114098880Y-130510500D01*
X114098887Y-130510500D01*
X114361113Y-130510500D01*
X114361120Y-130510500D01*
X114621116Y-130476270D01*
X114874419Y-130408398D01*
X115116697Y-130308043D01*
X115343803Y-130176924D01*
X115551851Y-130017282D01*
X115551855Y-130017277D01*
X115551860Y-130017274D01*
X115737274Y-129831860D01*
X115737277Y-129831855D01*
X115737282Y-129831851D01*
X115896924Y-129623803D01*
X116028043Y-129396697D01*
X116128398Y-129154419D01*
X116195092Y-128905513D01*
X117799500Y-128905513D01*
X117799500Y-129094486D01*
X117829059Y-129281118D01*
X117887454Y-129460836D01*
X117970488Y-129623798D01*
X117973240Y-129629199D01*
X118084310Y-129782073D01*
X118217927Y-129915690D01*
X118370801Y-130026760D01*
X118445881Y-130065015D01*
X118539163Y-130112545D01*
X118539165Y-130112545D01*
X118539168Y-130112547D01*
X118635497Y-130143846D01*
X118718881Y-130170940D01*
X118905514Y-130200500D01*
X118905519Y-130200500D01*
X119094486Y-130200500D01*
X119281118Y-130170940D01*
X119460832Y-130112547D01*
X119528807Y-130077911D01*
X119597477Y-130065015D01*
X119662217Y-130091291D01*
X119702475Y-130148397D01*
X119705467Y-130218203D01*
X119699665Y-130235845D01*
X119691801Y-130254829D01*
X119691797Y-130254842D01*
X119659500Y-130417213D01*
X119659500Y-130582786D01*
X119691797Y-130745157D01*
X119691800Y-130745166D01*
X119755154Y-130898119D01*
X119755161Y-130898132D01*
X119847140Y-131035787D01*
X119847143Y-131035791D01*
X119964208Y-131152856D01*
X119964212Y-131152859D01*
X120101867Y-131244838D01*
X120101880Y-131244845D01*
X120216594Y-131292360D01*
X120254835Y-131308200D01*
X120254837Y-131308200D01*
X120254842Y-131308202D01*
X120417213Y-131340499D01*
X120417216Y-131340500D01*
X120417218Y-131340500D01*
X120582784Y-131340500D01*
X120582785Y-131340499D01*
X120636909Y-131329733D01*
X120745157Y-131308202D01*
X120745160Y-131308200D01*
X120745165Y-131308200D01*
X120898126Y-131244842D01*
X120990196Y-131183322D01*
X121056872Y-131162445D01*
X121124252Y-131180929D01*
X121170943Y-131232908D01*
X121182119Y-131301877D01*
X121180704Y-131310615D01*
X121159500Y-131417218D01*
X121159500Y-131582786D01*
X121191797Y-131745157D01*
X121191800Y-131745166D01*
X121255154Y-131898119D01*
X121255161Y-131898132D01*
X121347140Y-132035787D01*
X121347143Y-132035791D01*
X121464208Y-132152856D01*
X121464212Y-132152859D01*
X121601867Y-132244838D01*
X121601880Y-132244845D01*
X121716594Y-132292360D01*
X121754835Y-132308200D01*
X121754837Y-132308200D01*
X121754842Y-132308202D01*
X121917213Y-132340499D01*
X121917216Y-132340500D01*
X121917218Y-132340500D01*
X122082784Y-132340500D01*
X122082785Y-132340499D01*
X122136909Y-132329733D01*
X122245157Y-132308202D01*
X122245160Y-132308200D01*
X122245165Y-132308200D01*
X122398126Y-132244842D01*
X122477509Y-132191800D01*
X122537975Y-132151398D01*
X122604652Y-132130520D01*
X122606866Y-132130500D01*
X133562101Y-132130500D01*
X133562102Y-132130499D01*
X133683910Y-132106271D01*
X133798654Y-132058742D01*
X133833007Y-132035788D01*
X133901920Y-131989742D01*
X133989742Y-131901920D01*
X133989743Y-131901917D01*
X138724843Y-127166819D01*
X138786166Y-127133334D01*
X138812524Y-127130500D01*
X144393134Y-127130500D01*
X144460173Y-127150185D01*
X144462025Y-127151398D01*
X144601867Y-127244838D01*
X144601880Y-127244845D01*
X144716594Y-127292360D01*
X144754835Y-127308200D01*
X144754837Y-127308200D01*
X144754842Y-127308202D01*
X144917213Y-127340499D01*
X144917216Y-127340500D01*
X144917218Y-127340500D01*
X145082784Y-127340500D01*
X145082785Y-127340499D01*
X145136909Y-127329733D01*
X145245157Y-127308202D01*
X145245160Y-127308200D01*
X145245165Y-127308200D01*
X145398126Y-127244842D01*
X145535788Y-127152859D01*
X145652859Y-127035788D01*
X145744842Y-126898126D01*
X145808200Y-126745165D01*
X145808765Y-126742328D01*
X145840499Y-126582786D01*
X145840500Y-126582784D01*
X145840500Y-126417215D01*
X145840499Y-126417213D01*
X145808202Y-126254842D01*
X145808199Y-126254833D01*
X145744844Y-126101879D01*
X145744842Y-126101874D01*
X145722801Y-126068888D01*
X145701924Y-126002216D01*
X145720407Y-125934835D01*
X145722765Y-125931165D01*
X145744842Y-125898126D01*
X145808200Y-125745165D01*
X145816088Y-125705513D01*
X145840499Y-125582786D01*
X145840500Y-125582784D01*
X145840500Y-125417215D01*
X145840499Y-125417213D01*
X145808202Y-125254842D01*
X145808199Y-125254833D01*
X145744845Y-125101880D01*
X145744838Y-125101867D01*
X145652859Y-124964212D01*
X145652856Y-124964208D01*
X145535791Y-124847143D01*
X145535787Y-124847140D01*
X145398132Y-124755161D01*
X145398119Y-124755154D01*
X145245166Y-124691800D01*
X145245157Y-124691797D01*
X145082785Y-124659500D01*
X145082782Y-124659500D01*
X144917218Y-124659500D01*
X144917215Y-124659500D01*
X144754842Y-124691797D01*
X144754833Y-124691800D01*
X144601880Y-124755154D01*
X144601867Y-124755161D01*
X144464212Y-124847140D01*
X144464208Y-124847143D01*
X144357171Y-124954181D01*
X144295848Y-124987666D01*
X144269490Y-124990500D01*
X138183099Y-124990500D01*
X137941100Y-124990500D01*
X137816900Y-124990500D01*
X137717568Y-125010258D01*
X137717567Y-125010257D01*
X137695094Y-125014728D01*
X137695091Y-125014728D01*
X137695090Y-125014729D01*
X137695088Y-125014729D01*
X137695087Y-125014730D01*
X137580349Y-125062256D01*
X137580339Y-125062261D01*
X137477081Y-125131256D01*
X137437538Y-125170800D01*
X137389258Y-125219080D01*
X137389255Y-125219083D01*
X132775158Y-129833181D01*
X132713835Y-129866666D01*
X132687477Y-129869500D01*
X127999841Y-129869500D01*
X127932802Y-129849815D01*
X127887047Y-129797011D01*
X127877103Y-129727853D01*
X127901464Y-129670014D01*
X127936924Y-129623803D01*
X128068043Y-129396697D01*
X128168398Y-129154419D01*
X128236270Y-128901116D01*
X128270500Y-128641120D01*
X128270500Y-128378880D01*
X128236270Y-128118884D01*
X128168398Y-127865581D01*
X128153473Y-127829548D01*
X128068046Y-127623309D01*
X128068041Y-127623299D01*
X127936924Y-127396196D01*
X127777281Y-127188148D01*
X127777274Y-127188140D01*
X127591860Y-127002726D01*
X127591851Y-127002718D01*
X127383803Y-126843075D01*
X127156700Y-126711958D01*
X127156690Y-126711953D01*
X126914428Y-126611605D01*
X126914421Y-126611603D01*
X126914419Y-126611602D01*
X126661116Y-126543730D01*
X126603339Y-126536123D01*
X126401127Y-126509500D01*
X126401120Y-126509500D01*
X126138880Y-126509500D01*
X126138872Y-126509500D01*
X125907772Y-126539926D01*
X125878884Y-126543730D01*
X125640957Y-126607482D01*
X125625581Y-126611602D01*
X125625571Y-126611605D01*
X125383309Y-126711953D01*
X125383299Y-126711958D01*
X125156196Y-126843075D01*
X124948148Y-127002718D01*
X124762718Y-127188148D01*
X124603075Y-127396196D01*
X124471958Y-127623299D01*
X124471953Y-127623309D01*
X124371605Y-127865571D01*
X124371602Y-127865581D01*
X124312994Y-128084312D01*
X124303730Y-128118885D01*
X124269500Y-128378872D01*
X124269500Y-128641127D01*
X124291533Y-128808476D01*
X124303730Y-128901116D01*
X124363071Y-129122580D01*
X124371602Y-129154418D01*
X124371605Y-129154428D01*
X124471953Y-129396690D01*
X124471958Y-129396700D01*
X124603072Y-129623798D01*
X124611042Y-129634185D01*
X124638535Y-129670014D01*
X124663729Y-129735182D01*
X124649691Y-129803627D01*
X124600877Y-129853617D01*
X124540159Y-129869500D01*
X122594917Y-129869500D01*
X122527878Y-129849815D01*
X122482123Y-129797011D01*
X122472179Y-129727853D01*
X122494599Y-129672615D01*
X122526329Y-129628940D01*
X122612085Y-129460637D01*
X122670451Y-129281002D01*
X122700000Y-129094447D01*
X122700000Y-128905552D01*
X122670451Y-128718997D01*
X122612085Y-128539362D01*
X122526329Y-128371059D01*
X122507883Y-128345670D01*
X122507882Y-128345669D01*
X121950302Y-128903249D01*
X121928651Y-128822447D01*
X121868091Y-128717554D01*
X121782446Y-128631909D01*
X121677553Y-128571349D01*
X121596749Y-128549697D01*
X122154328Y-127992116D01*
X122128933Y-127973666D01*
X121960637Y-127887914D01*
X121781002Y-127829548D01*
X121594447Y-127800000D01*
X121405553Y-127800000D01*
X121218997Y-127829548D01*
X121039362Y-127887914D01*
X120871060Y-127973669D01*
X120845670Y-127992116D01*
X120845669Y-127992116D01*
X121403250Y-128549697D01*
X121322447Y-128571349D01*
X121217554Y-128631909D01*
X121131909Y-128717554D01*
X121071349Y-128822447D01*
X121049697Y-128903250D01*
X120492116Y-128345669D01*
X120492116Y-128345670D01*
X120473669Y-128371060D01*
X120387915Y-128539361D01*
X120368193Y-128600059D01*
X120328755Y-128657734D01*
X120264396Y-128684932D01*
X120195550Y-128673017D01*
X120144074Y-128625773D01*
X120132332Y-128600061D01*
X120112547Y-128539168D01*
X120026760Y-128370801D01*
X119915690Y-128217927D01*
X119782073Y-128084310D01*
X119629199Y-127973240D01*
X119460836Y-127887454D01*
X119281118Y-127829059D01*
X119094486Y-127799500D01*
X119094481Y-127799500D01*
X118905519Y-127799500D01*
X118905514Y-127799500D01*
X118718881Y-127829059D01*
X118539163Y-127887454D01*
X118370800Y-127973240D01*
X118283579Y-128036610D01*
X118217927Y-128084310D01*
X118217925Y-128084312D01*
X118217924Y-128084312D01*
X118084312Y-128217924D01*
X118084312Y-128217925D01*
X118084310Y-128217927D01*
X118036610Y-128283579D01*
X117973240Y-128370800D01*
X117887454Y-128539163D01*
X117829059Y-128718881D01*
X117799500Y-128905513D01*
X116195092Y-128905513D01*
X116196270Y-128901116D01*
X116230500Y-128641120D01*
X116230500Y-128378880D01*
X116196270Y-128118884D01*
X116128398Y-127865581D01*
X116113473Y-127829548D01*
X116028046Y-127623309D01*
X116028041Y-127623299D01*
X115896924Y-127396196D01*
X115737281Y-127188148D01*
X115737274Y-127188140D01*
X115551860Y-127002726D01*
X115551851Y-127002718D01*
X115343803Y-126843075D01*
X115116700Y-126711958D01*
X115116690Y-126711953D01*
X114874428Y-126611605D01*
X114874421Y-126611603D01*
X114874419Y-126611602D01*
X114621116Y-126543730D01*
X114563339Y-126536123D01*
X114361127Y-126509500D01*
X114361120Y-126509500D01*
X114098880Y-126509500D01*
X114098872Y-126509500D01*
X113867772Y-126539926D01*
X113838884Y-126543730D01*
X113600957Y-126607482D01*
X113585581Y-126611602D01*
X113585571Y-126611605D01*
X113343309Y-126711953D01*
X113343299Y-126711958D01*
X113116196Y-126843075D01*
X112908148Y-127002718D01*
X112722718Y-127188148D01*
X112563075Y-127396196D01*
X112431958Y-127623299D01*
X112431953Y-127623309D01*
X112331605Y-127865571D01*
X112331602Y-127865581D01*
X112272994Y-128084312D01*
X112263730Y-128118885D01*
X112229500Y-128378872D01*
X105000500Y-128378872D01*
X105000500Y-125705513D01*
X117799500Y-125705513D01*
X117799500Y-125894486D01*
X117829059Y-126081118D01*
X117887454Y-126260836D01*
X117934984Y-126354118D01*
X117973240Y-126429199D01*
X118084310Y-126582073D01*
X118217927Y-126715690D01*
X118370801Y-126826760D01*
X118431218Y-126857544D01*
X118539163Y-126912545D01*
X118539165Y-126912545D01*
X118539168Y-126912547D01*
X118635333Y-126943793D01*
X118718881Y-126970940D01*
X118905514Y-127000500D01*
X118905519Y-127000500D01*
X119094486Y-127000500D01*
X119281118Y-126970940D01*
X119460832Y-126912547D01*
X119629199Y-126826760D01*
X119782073Y-126715690D01*
X119915690Y-126582073D01*
X120026760Y-126429199D01*
X120065016Y-126354116D01*
X120112988Y-126303322D01*
X120180809Y-126286526D01*
X120246944Y-126309063D01*
X120290396Y-126363777D01*
X120299500Y-126410411D01*
X120299500Y-126547869D01*
X120299501Y-126547876D01*
X120305908Y-126607483D01*
X120356202Y-126742328D01*
X120356206Y-126742335D01*
X120442452Y-126857544D01*
X120442455Y-126857547D01*
X120557664Y-126943793D01*
X120557671Y-126943797D01*
X120692517Y-126994091D01*
X120692516Y-126994091D01*
X120699444Y-126994835D01*
X120752127Y-127000500D01*
X122247872Y-127000499D01*
X122307483Y-126994091D01*
X122442331Y-126943796D01*
X122557546Y-126857546D01*
X122643796Y-126742331D01*
X122694091Y-126607483D01*
X122700500Y-126547873D01*
X122700499Y-125052128D01*
X122694091Y-124992517D01*
X122683532Y-124964208D01*
X122643797Y-124857671D01*
X122643793Y-124857664D01*
X122557547Y-124742455D01*
X122557544Y-124742452D01*
X122442335Y-124656206D01*
X122442328Y-124656202D01*
X122307482Y-124605908D01*
X122307483Y-124605908D01*
X122247883Y-124599501D01*
X122247881Y-124599500D01*
X122247873Y-124599500D01*
X122247864Y-124599500D01*
X120752129Y-124599500D01*
X120752123Y-124599501D01*
X120692516Y-124605908D01*
X120557671Y-124656202D01*
X120557664Y-124656206D01*
X120442455Y-124742452D01*
X120442452Y-124742455D01*
X120356206Y-124857664D01*
X120356202Y-124857671D01*
X120305908Y-124992517D01*
X120299501Y-125052116D01*
X120299501Y-125052123D01*
X120299500Y-125052135D01*
X120299500Y-125189586D01*
X120279815Y-125256625D01*
X120227011Y-125302380D01*
X120157853Y-125312324D01*
X120094297Y-125283299D01*
X120065015Y-125245881D01*
X120026759Y-125170800D01*
X119998030Y-125131258D01*
X119915690Y-125017927D01*
X119782073Y-124884310D01*
X119629199Y-124773240D01*
X119593711Y-124755158D01*
X119460836Y-124687454D01*
X119281118Y-124629059D01*
X119094486Y-124599500D01*
X119094481Y-124599500D01*
X118905519Y-124599500D01*
X118905514Y-124599500D01*
X118718881Y-124629059D01*
X118539163Y-124687454D01*
X118370800Y-124773240D01*
X118283579Y-124836610D01*
X118217927Y-124884310D01*
X118217925Y-124884312D01*
X118217924Y-124884312D01*
X118084312Y-125017924D01*
X118084312Y-125017925D01*
X118084310Y-125017927D01*
X118052099Y-125062261D01*
X117973240Y-125170800D01*
X117887454Y-125339163D01*
X117829059Y-125518881D01*
X117799500Y-125705513D01*
X105000500Y-125705513D01*
X105000500Y-122037213D01*
X144159500Y-122037213D01*
X144159500Y-122202786D01*
X144191797Y-122365157D01*
X144191800Y-122365166D01*
X144255154Y-122518119D01*
X144255161Y-122518132D01*
X144347140Y-122655787D01*
X144347143Y-122655791D01*
X144464208Y-122772856D01*
X144464212Y-122772859D01*
X144601867Y-122864838D01*
X144601880Y-122864845D01*
X144716594Y-122912360D01*
X144754835Y-122928200D01*
X144754837Y-122928200D01*
X144754842Y-122928202D01*
X144917213Y-122960499D01*
X144917216Y-122960500D01*
X144917218Y-122960500D01*
X145082784Y-122960500D01*
X145082785Y-122960499D01*
X145136909Y-122949733D01*
X145245157Y-122928202D01*
X145245160Y-122928200D01*
X145245165Y-122928200D01*
X145398126Y-122864842D01*
X145535788Y-122772859D01*
X145535787Y-122772859D01*
X145537975Y-122771398D01*
X145604652Y-122750520D01*
X145606866Y-122750500D01*
X147590870Y-122750500D01*
X147638320Y-122759938D01*
X147754835Y-122808200D01*
X147917213Y-122840499D01*
X147917216Y-122840500D01*
X147917218Y-122840500D01*
X148082784Y-122840500D01*
X148082785Y-122840499D01*
X148136909Y-122829733D01*
X148245157Y-122808202D01*
X148245160Y-122808200D01*
X148245165Y-122808200D01*
X148398126Y-122744842D01*
X148535788Y-122652859D01*
X148652859Y-122535788D01*
X148744842Y-122398126D01*
X148808200Y-122245165D01*
X148840500Y-122082782D01*
X148840500Y-121917218D01*
X148840500Y-121917215D01*
X148840499Y-121917213D01*
X148808202Y-121754842D01*
X148808199Y-121754833D01*
X148744845Y-121601880D01*
X148744838Y-121601867D01*
X148652859Y-121464212D01*
X148652856Y-121464208D01*
X148535791Y-121347143D01*
X148535787Y-121347140D01*
X148398132Y-121255161D01*
X148398119Y-121255154D01*
X148245166Y-121191800D01*
X148245157Y-121191797D01*
X148082785Y-121159500D01*
X148082782Y-121159500D01*
X147917218Y-121159500D01*
X147917215Y-121159500D01*
X147754842Y-121191797D01*
X147754833Y-121191800D01*
X147601880Y-121255154D01*
X147601867Y-121255161D01*
X147464212Y-121347140D01*
X147464208Y-121347143D01*
X147358171Y-121453181D01*
X147296848Y-121486666D01*
X147270490Y-121489500D01*
X145606866Y-121489500D01*
X145539827Y-121469815D01*
X145537975Y-121468602D01*
X145398132Y-121375161D01*
X145398119Y-121375154D01*
X145245166Y-121311800D01*
X145245157Y-121311797D01*
X145082785Y-121279500D01*
X145082782Y-121279500D01*
X144917218Y-121279500D01*
X144917215Y-121279500D01*
X144754842Y-121311797D01*
X144754833Y-121311800D01*
X144601880Y-121375154D01*
X144601867Y-121375161D01*
X144464212Y-121467140D01*
X144464208Y-121467143D01*
X144347143Y-121584208D01*
X144347140Y-121584212D01*
X144255161Y-121721867D01*
X144255154Y-121721880D01*
X144191800Y-121874833D01*
X144191797Y-121874842D01*
X144159500Y-122037213D01*
X105000500Y-122037213D01*
X105000500Y-120417213D01*
X136159500Y-120417213D01*
X136159500Y-120582786D01*
X136191797Y-120745157D01*
X136191800Y-120745166D01*
X136255154Y-120898119D01*
X136255161Y-120898132D01*
X136347140Y-121035787D01*
X136347143Y-121035791D01*
X136464208Y-121152856D01*
X136464212Y-121152859D01*
X136601867Y-121244838D01*
X136601880Y-121244845D01*
X136716594Y-121292360D01*
X136754835Y-121308200D01*
X136754837Y-121308200D01*
X136754842Y-121308202D01*
X136917213Y-121340499D01*
X136917216Y-121340500D01*
X136917218Y-121340500D01*
X137082784Y-121340500D01*
X137082785Y-121340499D01*
X137136909Y-121329733D01*
X137245157Y-121308202D01*
X137245160Y-121308200D01*
X137245165Y-121308200D01*
X137337536Y-121269938D01*
X137384988Y-121260500D01*
X142615012Y-121260500D01*
X142662463Y-121269938D01*
X142754835Y-121308200D01*
X142754837Y-121308200D01*
X142754842Y-121308202D01*
X142917213Y-121340499D01*
X142917216Y-121340500D01*
X142917218Y-121340500D01*
X143082784Y-121340500D01*
X143082785Y-121340499D01*
X143136909Y-121329733D01*
X143245157Y-121308202D01*
X143245160Y-121308200D01*
X143245165Y-121308200D01*
X143398126Y-121244842D01*
X143535788Y-121152859D01*
X143652859Y-121035788D01*
X143744842Y-120898126D01*
X143808200Y-120745165D01*
X143840500Y-120582782D01*
X143840500Y-120417218D01*
X143840500Y-120417215D01*
X143840499Y-120417213D01*
X143808202Y-120254842D01*
X143808199Y-120254833D01*
X143744845Y-120101880D01*
X143744838Y-120101867D01*
X143652859Y-119964212D01*
X143652856Y-119964208D01*
X143535791Y-119847143D01*
X143535787Y-119847140D01*
X143398132Y-119755161D01*
X143398119Y-119755154D01*
X143245166Y-119691800D01*
X143245157Y-119691797D01*
X143082785Y-119659500D01*
X143082782Y-119659500D01*
X142917218Y-119659500D01*
X142917215Y-119659500D01*
X142754842Y-119691797D01*
X142754833Y-119691800D01*
X142662464Y-119730061D01*
X142615012Y-119739500D01*
X137384988Y-119739500D01*
X137337536Y-119730061D01*
X137245166Y-119691800D01*
X137245157Y-119691797D01*
X137082785Y-119659500D01*
X137082782Y-119659500D01*
X136917218Y-119659500D01*
X136917215Y-119659500D01*
X136754842Y-119691797D01*
X136754833Y-119691800D01*
X136601880Y-119755154D01*
X136601867Y-119755161D01*
X136464212Y-119847140D01*
X136464208Y-119847143D01*
X136347143Y-119964208D01*
X136347140Y-119964212D01*
X136255161Y-120101867D01*
X136255154Y-120101880D01*
X136191800Y-120254833D01*
X136191797Y-120254842D01*
X136159500Y-120417213D01*
X105000500Y-120417213D01*
X105000500Y-114381902D01*
X119459500Y-114381902D01*
X119459500Y-114618097D01*
X119496446Y-114851368D01*
X119569433Y-115075996D01*
X119650328Y-115234759D01*
X119676657Y-115286433D01*
X119815483Y-115477510D01*
X119982490Y-115644517D01*
X120173567Y-115783343D01*
X120222350Y-115808199D01*
X120384003Y-115890566D01*
X120384005Y-115890566D01*
X120384008Y-115890568D01*
X120504412Y-115929689D01*
X120608631Y-115963553D01*
X120841903Y-116000500D01*
X120841908Y-116000500D01*
X121078097Y-116000500D01*
X121311368Y-115963553D01*
X121535992Y-115890568D01*
X121746433Y-115783343D01*
X121937510Y-115644517D01*
X122104517Y-115477510D01*
X122243343Y-115286433D01*
X122350568Y-115075992D01*
X122423553Y-114851368D01*
X122438841Y-114754842D01*
X122460500Y-114618097D01*
X122460500Y-114381902D01*
X124539500Y-114381902D01*
X124539500Y-114618097D01*
X124576446Y-114851368D01*
X124649433Y-115075996D01*
X124730328Y-115234759D01*
X124756657Y-115286433D01*
X124895483Y-115477510D01*
X125062490Y-115644517D01*
X125253567Y-115783343D01*
X125302350Y-115808199D01*
X125464003Y-115890566D01*
X125464005Y-115890566D01*
X125464008Y-115890568D01*
X125584412Y-115929689D01*
X125688631Y-115963553D01*
X125921903Y-116000500D01*
X125921908Y-116000500D01*
X126158097Y-116000500D01*
X126391368Y-115963553D01*
X126615992Y-115890568D01*
X126826433Y-115783343D01*
X127017510Y-115644517D01*
X127184517Y-115477510D01*
X127323343Y-115286433D01*
X127430568Y-115075992D01*
X127503553Y-114851368D01*
X127518841Y-114754842D01*
X127540500Y-114618097D01*
X127540500Y-114381902D01*
X127503553Y-114148631D01*
X127430566Y-113924003D01*
X127374002Y-113812991D01*
X127323343Y-113713567D01*
X127184517Y-113522490D01*
X127017510Y-113355483D01*
X126826433Y-113216657D01*
X126773525Y-113189699D01*
X126615996Y-113109433D01*
X126391368Y-113036446D01*
X126158097Y-112999500D01*
X126158092Y-112999500D01*
X125921908Y-112999500D01*
X125921903Y-112999500D01*
X125688631Y-113036446D01*
X125464003Y-113109433D01*
X125253566Y-113216657D01*
X125180569Y-113269693D01*
X125062490Y-113355483D01*
X125062488Y-113355485D01*
X125062487Y-113355485D01*
X124895485Y-113522487D01*
X124895485Y-113522488D01*
X124895483Y-113522490D01*
X124835862Y-113604550D01*
X124756657Y-113713566D01*
X124649433Y-113924003D01*
X124576446Y-114148631D01*
X124539500Y-114381902D01*
X122460500Y-114381902D01*
X122423553Y-114148631D01*
X122350566Y-113924003D01*
X122294002Y-113812991D01*
X122243343Y-113713567D01*
X122104517Y-113522490D01*
X121937510Y-113355483D01*
X121746433Y-113216657D01*
X121693525Y-113189699D01*
X121535996Y-113109433D01*
X121311368Y-113036446D01*
X121078097Y-112999500D01*
X121078092Y-112999500D01*
X120841908Y-112999500D01*
X120841903Y-112999500D01*
X120608631Y-113036446D01*
X120384003Y-113109433D01*
X120173566Y-113216657D01*
X120100569Y-113269693D01*
X119982490Y-113355483D01*
X119982488Y-113355485D01*
X119982487Y-113355485D01*
X119815485Y-113522487D01*
X119815485Y-113522488D01*
X119815483Y-113522490D01*
X119755862Y-113604550D01*
X119676657Y-113713566D01*
X119569433Y-113924003D01*
X119496446Y-114148631D01*
X119459500Y-114381902D01*
X105000500Y-114381902D01*
X105000500Y-111881995D01*
X105699500Y-111881995D01*
X105699500Y-112118004D01*
X105699501Y-112118020D01*
X105730306Y-112352010D01*
X105791394Y-112579993D01*
X105881714Y-112798045D01*
X105881719Y-112798056D01*
X105915516Y-112856593D01*
X105999727Y-113002450D01*
X105999729Y-113002453D01*
X105999730Y-113002454D01*
X106143406Y-113189697D01*
X106143412Y-113189704D01*
X106310295Y-113356587D01*
X106310301Y-113356592D01*
X106497550Y-113500273D01*
X106628918Y-113576118D01*
X106701943Y-113618280D01*
X106701948Y-113618282D01*
X106701951Y-113618284D01*
X106920007Y-113708606D01*
X107147986Y-113769693D01*
X107381989Y-113800500D01*
X107381996Y-113800500D01*
X107618004Y-113800500D01*
X107618011Y-113800500D01*
X107852014Y-113769693D01*
X108079993Y-113708606D01*
X108298049Y-113618284D01*
X108502450Y-113500273D01*
X108689699Y-113356592D01*
X108856592Y-113189699D01*
X109000273Y-113002450D01*
X109118284Y-112798049D01*
X109208606Y-112579993D01*
X109269693Y-112352014D01*
X109300500Y-112118011D01*
X109300500Y-111881989D01*
X109269693Y-111647986D01*
X109208606Y-111420007D01*
X109192861Y-111381995D01*
X172699500Y-111381995D01*
X172699500Y-111618004D01*
X172699501Y-111618020D01*
X172730306Y-111852010D01*
X172791394Y-112079993D01*
X172881714Y-112298045D01*
X172881719Y-112298056D01*
X172952677Y-112420957D01*
X172999727Y-112502450D01*
X172999729Y-112502453D01*
X172999730Y-112502454D01*
X173143406Y-112689697D01*
X173143412Y-112689704D01*
X173310295Y-112856587D01*
X173310301Y-112856592D01*
X173497550Y-113000273D01*
X173628918Y-113076118D01*
X173701943Y-113118280D01*
X173701948Y-113118282D01*
X173701951Y-113118284D01*
X173920007Y-113208606D01*
X174147986Y-113269693D01*
X174381989Y-113300500D01*
X174381996Y-113300500D01*
X174618004Y-113300500D01*
X174618011Y-113300500D01*
X174852014Y-113269693D01*
X175079993Y-113208606D01*
X175298049Y-113118284D01*
X175502450Y-113000273D01*
X175689699Y-112856592D01*
X175856592Y-112689699D01*
X176000273Y-112502450D01*
X176118284Y-112298049D01*
X176208606Y-112079993D01*
X176269693Y-111852014D01*
X176300500Y-111618011D01*
X176300500Y-111381989D01*
X176269693Y-111147986D01*
X176208606Y-110920007D01*
X176118284Y-110701951D01*
X176118282Y-110701948D01*
X176118280Y-110701943D01*
X176076118Y-110628918D01*
X176000273Y-110497550D01*
X175856592Y-110310301D01*
X175856587Y-110310295D01*
X175689704Y-110143412D01*
X175689697Y-110143406D01*
X175502454Y-109999730D01*
X175502453Y-109999729D01*
X175502450Y-109999727D01*
X175420957Y-109952677D01*
X175298056Y-109881719D01*
X175298045Y-109881714D01*
X175079993Y-109791394D01*
X174852010Y-109730306D01*
X174618020Y-109699501D01*
X174618017Y-109699500D01*
X174618011Y-109699500D01*
X174381989Y-109699500D01*
X174381983Y-109699500D01*
X174381979Y-109699501D01*
X174147989Y-109730306D01*
X173920006Y-109791394D01*
X173701954Y-109881714D01*
X173701943Y-109881719D01*
X173497545Y-109999730D01*
X173310302Y-110143406D01*
X173310295Y-110143412D01*
X173143412Y-110310295D01*
X173143406Y-110310302D01*
X172999730Y-110497545D01*
X172881719Y-110701943D01*
X172881714Y-110701954D01*
X172791394Y-110920006D01*
X172730306Y-111147989D01*
X172699501Y-111381979D01*
X172699500Y-111381995D01*
X109192861Y-111381995D01*
X109118284Y-111201951D01*
X109118282Y-111201948D01*
X109118280Y-111201943D01*
X109076118Y-111128918D01*
X109000273Y-110997550D01*
X108856592Y-110810301D01*
X108856587Y-110810295D01*
X108689704Y-110643412D01*
X108689697Y-110643406D01*
X108502454Y-110499730D01*
X108502453Y-110499729D01*
X108502450Y-110499727D01*
X108420957Y-110452677D01*
X108298056Y-110381719D01*
X108298045Y-110381714D01*
X108079993Y-110291394D01*
X107852010Y-110230306D01*
X107618020Y-110199501D01*
X107618017Y-110199500D01*
X107618011Y-110199500D01*
X107381989Y-110199500D01*
X107381983Y-110199500D01*
X107381979Y-110199501D01*
X107147989Y-110230306D01*
X106920006Y-110291394D01*
X106701954Y-110381714D01*
X106701943Y-110381719D01*
X106497545Y-110499730D01*
X106310302Y-110643406D01*
X106310295Y-110643412D01*
X106143412Y-110810295D01*
X106143406Y-110810302D01*
X105999730Y-110997545D01*
X105881719Y-111201943D01*
X105881714Y-111201954D01*
X105791394Y-111420006D01*
X105730306Y-111647989D01*
X105699501Y-111881979D01*
X105699500Y-111881995D01*
X105000500Y-111881995D01*
X105000500Y-109620237D01*
X105020185Y-109553198D01*
X105072989Y-109507443D01*
X105123648Y-109496240D01*
X176874651Y-109004794D01*
X176941823Y-109024019D01*
G37*
%TD.AperFunction*%
%TD*%
M02*
