%TF.GenerationSoftware,KiCad,Pcbnew,9.0.2*%
%TF.CreationDate,2026-07-04T16:22:35+08:00*%
%TF.ProjectId,usb_to_uart_converter,7573625f-746f-45f7-9561-72745f636f6e,2.2*%
%TF.SameCoordinates,Original*%
%TF.FileFunction,Copper,L2,Bot*%
%TF.FilePolarity,Positive*%
%FSLAX46Y46*%
G04 Gerber Fmt 4.6, Leading zero omitted, Abs format (unit mm)*
G04 Created by KiCad (PCBNEW 9.0.2) date 2026-07-04 16:22:35*
%MOMM*%
%LPD*%
G01*
G04 APERTURE LIST*
%TA.AperFunction,ComponentPad*%
%ADD10C,1.879600*%
%TD*%
%TA.AperFunction,ComponentPad*%
%ADD11C,2.000000*%
%TD*%
%TA.AperFunction,ComponentPad*%
%ADD12R,1.400000X1.400000*%
%TD*%
%TA.AperFunction,ComponentPad*%
%ADD13C,1.400000*%
%TD*%
%TA.AperFunction,ComponentPad*%
%ADD14C,3.000000*%
%TD*%
%TA.AperFunction,ViaPad*%
%ADD15C,0.800000*%
%TD*%
%TA.AperFunction,ViaPad*%
%ADD16C,0.680000*%
%TD*%
%TA.AperFunction,Conductor*%
%ADD17C,0.260000*%
%TD*%
%TA.AperFunction,Conductor*%
%ADD18C,0.520000*%
%TD*%
G04 APERTURE END LIST*
D10*
%TO.P,J4,1,Pin_1*%
%TO.N,GND*%
X128537300Y-140500000D03*
%TO.P,J4,2,Pin_2*%
%TO.N,Net-(J4-Pin_2)*%
X125997300Y-140373000D03*
%TO.P,J4,3,Pin_3*%
%TO.N,VCCIO*%
X123457300Y-140627000D03*
%TO.P,J4,4,Pin_4*%
%TO.N,Net-(J4-Pin_4)*%
X120917300Y-140373000D03*
%TO.P,J4,5,Pin_5*%
%TO.N,Net-(J4-Pin_5)*%
X118377300Y-140627000D03*
%TO.P,J4,6,Pin_6*%
%TO.N,Net-(J4-Pin_6)*%
X115837300Y-140373000D03*
%TD*%
D11*
%TO.P,FB1,1*%
%TO.N,Net-(J1-VBUS)*%
X147000000Y-117500000D03*
%TO.P,FB1,2*%
%TO.N,/VCC*%
X141920000Y-117500000D03*
%TD*%
D10*
%TO.P,J2,1,Pin_1*%
%TO.N,Net-(J2-Pin_1)*%
X113500000Y-125960000D03*
%TO.P,J2,2,Pin_2*%
%TO.N,VCCIO*%
X113500000Y-128500000D03*
%TO.P,J2,3,Pin_3*%
%TO.N,/VCC*%
X113500000Y-131040000D03*
%TD*%
D12*
%TO.P,J1,1,VBUS*%
%TO.N,Net-(J1-VBUS)*%
X153770000Y-132290000D03*
D13*
%TO.P,J1,2,D-*%
%TO.N,/D-*%
X151270000Y-132290000D03*
%TO.P,J1,3,D+*%
%TO.N,/D+*%
X151270000Y-135490000D03*
%TO.P,J1,4,GND*%
%TO.N,GND*%
X153770000Y-135490000D03*
D14*
%TO.P,J1,5,Shield*%
%TO.N,unconnected-(J1-Shield-Pad5)_1*%
X146500000Y-135000000D03*
%TO.N,unconnected-(J1-Shield-Pad5)*%
X158540000Y-135000000D03*
%TD*%
D15*
%TO.N,GND*%
X125700000Y-136000000D03*
X123000000Y-121500000D03*
X125500000Y-126500000D03*
X125200000Y-133500000D03*
X127500000Y-127000000D03*
X129500000Y-121000000D03*
X153500000Y-113500000D03*
X135500000Y-121000000D03*
X137500000Y-114000000D03*
X122000000Y-121500000D03*
D16*
%TO.N,Net-(J2-Pin_1)*%
X114500000Y-122500000D03*
X127500000Y-122500000D03*
D15*
%TO.N,VCCIO*%
X123457300Y-137500000D03*
X121597300Y-135500000D03*
X117000000Y-135500000D03*
X130000000Y-136500000D03*
D16*
%TO.N,Net-(D1-K)*%
X125500000Y-121500000D03*
X125500000Y-119000000D03*
%TO.N,Net-(D2-K)*%
X124500000Y-119000000D03*
X124500000Y-121500000D03*
%TO.N,Net-(J4-Pin_6)*%
X116200000Y-137500000D03*
X121700000Y-134500000D03*
%TO.N,Net-(J4-Pin_5)*%
X120000000Y-137500000D03*
X124700000Y-135000000D03*
%TD*%
D17*
%TO.N,Net-(J2-Pin_1)*%
X114500000Y-122500000D02*
X127500000Y-122500000D01*
D18*
%TO.N,VCCIO*%
X130000000Y-136500000D02*
X129000000Y-137500000D01*
X117000000Y-135500000D02*
X121597300Y-135500000D01*
X129000000Y-137500000D02*
X123457300Y-137500000D01*
D17*
%TO.N,Net-(D1-K)*%
X125500000Y-119000000D02*
X125500000Y-121500000D01*
%TO.N,Net-(D2-K)*%
X124500000Y-121500000D02*
X124500000Y-119000000D01*
%TO.N,Net-(J4-Pin_6)*%
X116200000Y-135336920D02*
X116200000Y-137500000D01*
X117036920Y-134500000D02*
X116200000Y-135336920D01*
X121700000Y-134500000D02*
X117036920Y-134500000D01*
%TO.N,Net-(J4-Pin_5)*%
X122200000Y-137500000D02*
X120000000Y-137500000D01*
X124700000Y-135000000D02*
X122200000Y-137500000D01*
%TD*%
%TA.AperFunction,Conductor*%
%TO.N,GND*%
G36*
X176941823Y-109024019D02*
G01*
X176987939Y-109076508D01*
X176999500Y-109128791D01*
X176999500Y-143879761D01*
X176979815Y-143946800D01*
X176927011Y-143992555D01*
X176876349Y-144003758D01*
X105125349Y-144495204D01*
X105058177Y-144475979D01*
X105012061Y-144423490D01*
X105000500Y-144371207D01*
X105000500Y-141881995D01*
X105699500Y-141881995D01*
X105699500Y-142118004D01*
X105699501Y-142118020D01*
X105730306Y-142352010D01*
X105791394Y-142579993D01*
X105881714Y-142798045D01*
X105881719Y-142798056D01*
X105915516Y-142856593D01*
X105999727Y-143002450D01*
X105999729Y-143002453D01*
X105999730Y-143002454D01*
X106143406Y-143189697D01*
X106143412Y-143189704D01*
X106310295Y-143356587D01*
X106310301Y-143356592D01*
X106497550Y-143500273D01*
X106628918Y-143576118D01*
X106701943Y-143618280D01*
X106701948Y-143618282D01*
X106701951Y-143618284D01*
X106920007Y-143708606D01*
X107147986Y-143769693D01*
X107381989Y-143800500D01*
X107381996Y-143800500D01*
X107618004Y-143800500D01*
X107618011Y-143800500D01*
X107852014Y-143769693D01*
X108079993Y-143708606D01*
X108298049Y-143618284D01*
X108502450Y-143500273D01*
X108689699Y-143356592D01*
X108856592Y-143189699D01*
X109000273Y-143002450D01*
X109118284Y-142798049D01*
X109208606Y-142579993D01*
X109269693Y-142352014D01*
X109300500Y-142118011D01*
X109300500Y-141881989D01*
X109269693Y-141647986D01*
X109208606Y-141420007D01*
X109118284Y-141201951D01*
X109118282Y-141201948D01*
X109118280Y-141201943D01*
X109075520Y-141127882D01*
X109000273Y-140997550D01*
X108877198Y-140837155D01*
X108856593Y-140810302D01*
X108856587Y-140810295D01*
X108689704Y-140643412D01*
X108689697Y-140643406D01*
X108502454Y-140499730D01*
X108502453Y-140499729D01*
X108502450Y-140499727D01*
X108420957Y-140452677D01*
X108298056Y-140381719D01*
X108298040Y-140381711D01*
X108268160Y-140369335D01*
X108268159Y-140369335D01*
X108079993Y-140291394D01*
X107961508Y-140259646D01*
X114397000Y-140259646D01*
X114397000Y-140486354D01*
X114398773Y-140497550D01*
X114432465Y-140710272D01*
X114502519Y-140925880D01*
X114502520Y-140925883D01*
X114605447Y-141127885D01*
X114738694Y-141311286D01*
X114738698Y-141311291D01*
X114899008Y-141471601D01*
X114899013Y-141471605D01*
X115027962Y-141565291D01*
X115082418Y-141604855D01*
X115214466Y-141672137D01*
X115284416Y-141707779D01*
X115284419Y-141707780D01*
X115339280Y-141725605D01*
X115500029Y-141777835D01*
X115723946Y-141813300D01*
X115723947Y-141813300D01*
X115950653Y-141813300D01*
X115950654Y-141813300D01*
X116174571Y-141777835D01*
X116390183Y-141707779D01*
X116592182Y-141604855D01*
X116775593Y-141471600D01*
X116930208Y-141316984D01*
X116991528Y-141283502D01*
X117061219Y-141288486D01*
X117117153Y-141330357D01*
X117128370Y-141348372D01*
X117145445Y-141381883D01*
X117278694Y-141565286D01*
X117278698Y-141565291D01*
X117439008Y-141725601D01*
X117439013Y-141725605D01*
X117588643Y-141834316D01*
X117622418Y-141858855D01*
X117711695Y-141904344D01*
X117824416Y-141961779D01*
X117824419Y-141961780D01*
X117932223Y-141996807D01*
X118040029Y-142031835D01*
X118263946Y-142067300D01*
X118263947Y-142067300D01*
X118490653Y-142067300D01*
X118490654Y-142067300D01*
X118714571Y-142031835D01*
X118930183Y-141961779D01*
X119132182Y-141858855D01*
X119315593Y-141725600D01*
X119475900Y-141565293D01*
X119609155Y-141381882D01*
X119626228Y-141348373D01*
X119674201Y-141297578D01*
X119742022Y-141280782D01*
X119808157Y-141303319D01*
X119824394Y-141316987D01*
X119979008Y-141471601D01*
X119979013Y-141471605D01*
X120107962Y-141565291D01*
X120162418Y-141604855D01*
X120294466Y-141672137D01*
X120364416Y-141707779D01*
X120364419Y-141707780D01*
X120419280Y-141725605D01*
X120580029Y-141777835D01*
X120803946Y-141813300D01*
X120803947Y-141813300D01*
X121030653Y-141813300D01*
X121030654Y-141813300D01*
X121254571Y-141777835D01*
X121470183Y-141707779D01*
X121672182Y-141604855D01*
X121855593Y-141471600D01*
X122010208Y-141316984D01*
X122071528Y-141283502D01*
X122141219Y-141288486D01*
X122197153Y-141330357D01*
X122208370Y-141348372D01*
X122225445Y-141381883D01*
X122358694Y-141565286D01*
X122358698Y-141565291D01*
X122519008Y-141725601D01*
X122519013Y-141725605D01*
X122668643Y-141834316D01*
X122702418Y-141858855D01*
X122791695Y-141904344D01*
X122904416Y-141961779D01*
X122904419Y-141961780D01*
X123012223Y-141996807D01*
X123120029Y-142031835D01*
X123343946Y-142067300D01*
X123343947Y-142067300D01*
X123570653Y-142067300D01*
X123570654Y-142067300D01*
X123794571Y-142031835D01*
X124010183Y-141961779D01*
X124212182Y-141858855D01*
X124395593Y-141725600D01*
X124555900Y-141565293D01*
X124689155Y-141381882D01*
X124706228Y-141348373D01*
X124754201Y-141297578D01*
X124822022Y-141280782D01*
X124888157Y-141303319D01*
X124904394Y-141316987D01*
X125059008Y-141471601D01*
X125059013Y-141471605D01*
X125187962Y-141565291D01*
X125242418Y-141604855D01*
X125374466Y-141672137D01*
X125444416Y-141707779D01*
X125444419Y-141707780D01*
X125499280Y-141725605D01*
X125660029Y-141777835D01*
X125883946Y-141813300D01*
X125883947Y-141813300D01*
X126110653Y-141813300D01*
X126110654Y-141813300D01*
X126334571Y-141777835D01*
X126550183Y-141707779D01*
X126752182Y-141604855D01*
X126935593Y-141471600D01*
X127095900Y-141311293D01*
X127121155Y-141276531D01*
X127176484Y-141233866D01*
X127246097Y-141227885D01*
X127307893Y-141260490D01*
X127321792Y-141276531D01*
X127439076Y-141437961D01*
X127599334Y-141598219D01*
X127599339Y-141598223D01*
X127782676Y-141731424D01*
X127984611Y-141834316D01*
X128200138Y-141904344D01*
X128287300Y-141918149D01*
X128287300Y-140942251D01*
X128341219Y-140973381D01*
X128470420Y-141008000D01*
X128604180Y-141008000D01*
X128733381Y-140973381D01*
X128787300Y-140942251D01*
X128787300Y-141918148D01*
X128874461Y-141904344D01*
X129089988Y-141834316D01*
X129291923Y-141731424D01*
X129475260Y-141598223D01*
X129475265Y-141598219D01*
X129635519Y-141437965D01*
X129635523Y-141437960D01*
X129676184Y-141381995D01*
X172699500Y-141381995D01*
X172699500Y-141618004D01*
X172699501Y-141618020D01*
X172730306Y-141852010D01*
X172791394Y-142079993D01*
X172881714Y-142298045D01*
X172881719Y-142298056D01*
X172952677Y-142420957D01*
X172999727Y-142502450D01*
X172999729Y-142502453D01*
X172999730Y-142502454D01*
X173143406Y-142689697D01*
X173143412Y-142689704D01*
X173310295Y-142856587D01*
X173310301Y-142856592D01*
X173497550Y-143000273D01*
X173628918Y-143076118D01*
X173701943Y-143118280D01*
X173701948Y-143118282D01*
X173701951Y-143118284D01*
X173920007Y-143208606D01*
X174147986Y-143269693D01*
X174381989Y-143300500D01*
X174381996Y-143300500D01*
X174618004Y-143300500D01*
X174618011Y-143300500D01*
X174852014Y-143269693D01*
X175079993Y-143208606D01*
X175298049Y-143118284D01*
X175502450Y-143000273D01*
X175689699Y-142856592D01*
X175856592Y-142689699D01*
X176000273Y-142502450D01*
X176118284Y-142298049D01*
X176208606Y-142079993D01*
X176269693Y-141852014D01*
X176300500Y-141618011D01*
X176300500Y-141381989D01*
X176269693Y-141147986D01*
X176208606Y-140920007D01*
X176118284Y-140701951D01*
X176118282Y-140701948D01*
X176118280Y-140701943D01*
X176076118Y-140628918D01*
X176000273Y-140497550D01*
X175856592Y-140310301D01*
X175856587Y-140310295D01*
X175689704Y-140143412D01*
X175689697Y-140143406D01*
X175502454Y-139999730D01*
X175502453Y-139999729D01*
X175502450Y-139999727D01*
X175411663Y-139947311D01*
X175298056Y-139881719D01*
X175298045Y-139881714D01*
X175079993Y-139791394D01*
X174852010Y-139730306D01*
X174618020Y-139699501D01*
X174618017Y-139699500D01*
X174618011Y-139699500D01*
X174381989Y-139699500D01*
X174381983Y-139699500D01*
X174381979Y-139699501D01*
X174147989Y-139730306D01*
X173920006Y-139791394D01*
X173701954Y-139881714D01*
X173701943Y-139881719D01*
X173497545Y-139999730D01*
X173310302Y-140143406D01*
X173310295Y-140143412D01*
X173143412Y-140310295D01*
X173143406Y-140310302D01*
X172999730Y-140497545D01*
X172881719Y-140701943D01*
X172881714Y-140701954D01*
X172791394Y-140920006D01*
X172730306Y-141147989D01*
X172699501Y-141381979D01*
X172699500Y-141381995D01*
X129676184Y-141381995D01*
X129732092Y-141305045D01*
X129768724Y-141254623D01*
X129871616Y-141052688D01*
X129941646Y-140837158D01*
X129941646Y-140837155D01*
X129955451Y-140750000D01*
X128979551Y-140750000D01*
X129010681Y-140696081D01*
X129045300Y-140566880D01*
X129045300Y-140433120D01*
X129010681Y-140303919D01*
X128979551Y-140250000D01*
X129955451Y-140250000D01*
X129941646Y-140162844D01*
X129941646Y-140162841D01*
X129871616Y-139947311D01*
X129768724Y-139745376D01*
X129635523Y-139562039D01*
X129635519Y-139562034D01*
X129475265Y-139401780D01*
X129475260Y-139401776D01*
X129291923Y-139268575D01*
X129089988Y-139165683D01*
X128874456Y-139095653D01*
X128787300Y-139081848D01*
X128787300Y-140057748D01*
X128733381Y-140026619D01*
X128604180Y-139992000D01*
X128470420Y-139992000D01*
X128341219Y-140026619D01*
X128287300Y-140057748D01*
X128287300Y-139081848D01*
X128200144Y-139095653D01*
X128200141Y-139095653D01*
X127984611Y-139165683D01*
X127782676Y-139268575D01*
X127599339Y-139401776D01*
X127599334Y-139401780D01*
X127439080Y-139562034D01*
X127414062Y-139596469D01*
X127358731Y-139639135D01*
X127289118Y-139645113D01*
X127227323Y-139612507D01*
X127213426Y-139596468D01*
X127095905Y-139434712D01*
X126935591Y-139274398D01*
X126935586Y-139274394D01*
X126752185Y-139141147D01*
X126752184Y-139141146D01*
X126752182Y-139141145D01*
X126687466Y-139108170D01*
X126550183Y-139038220D01*
X126550180Y-139038219D01*
X126334572Y-138968165D01*
X126222612Y-138950432D01*
X126110654Y-138932700D01*
X125883946Y-138932700D01*
X125809307Y-138944521D01*
X125660027Y-138968165D01*
X125444419Y-139038219D01*
X125444416Y-139038220D01*
X125242414Y-139141147D01*
X125059013Y-139274394D01*
X125059008Y-139274398D01*
X124898698Y-139434708D01*
X124898694Y-139434713D01*
X124765446Y-139618114D01*
X124748370Y-139651628D01*
X124700394Y-139702423D01*
X124632573Y-139719217D01*
X124566438Y-139696678D01*
X124550205Y-139683012D01*
X124395591Y-139528398D01*
X124395586Y-139528394D01*
X124212185Y-139395147D01*
X124212184Y-139395146D01*
X124212182Y-139395145D01*
X124147466Y-139362170D01*
X124010183Y-139292220D01*
X124010180Y-139292219D01*
X123794572Y-139222165D01*
X123682612Y-139204432D01*
X123570654Y-139186700D01*
X123343946Y-139186700D01*
X123269307Y-139198521D01*
X123120027Y-139222165D01*
X122904419Y-139292219D01*
X122904416Y-139292220D01*
X122702414Y-139395147D01*
X122519014Y-139528393D01*
X122364394Y-139683013D01*
X122303071Y-139716497D01*
X122233379Y-139711513D01*
X122177446Y-139669641D01*
X122166228Y-139651626D01*
X122149155Y-139618118D01*
X122149153Y-139618115D01*
X122149152Y-139618113D01*
X122015905Y-139434713D01*
X122015901Y-139434708D01*
X121855591Y-139274398D01*
X121855586Y-139274394D01*
X121672185Y-139141147D01*
X121672184Y-139141146D01*
X121672182Y-139141145D01*
X121607466Y-139108170D01*
X121470183Y-139038220D01*
X121470180Y-139038219D01*
X121254572Y-138968165D01*
X121142612Y-138950432D01*
X121030654Y-138932700D01*
X120803946Y-138932700D01*
X120729307Y-138944521D01*
X120580027Y-138968165D01*
X120364419Y-139038219D01*
X120364416Y-139038220D01*
X120162414Y-139141147D01*
X119979013Y-139274394D01*
X119979008Y-139274398D01*
X119818698Y-139434708D01*
X119818694Y-139434713D01*
X119685446Y-139618114D01*
X119668370Y-139651628D01*
X119620394Y-139702423D01*
X119552573Y-139719217D01*
X119486438Y-139696678D01*
X119470205Y-139683012D01*
X119315591Y-139528398D01*
X119315586Y-139528394D01*
X119132185Y-139395147D01*
X119132184Y-139395146D01*
X119132182Y-139395145D01*
X119067466Y-139362170D01*
X118930183Y-139292220D01*
X118930180Y-139292219D01*
X118714572Y-139222165D01*
X118602612Y-139204432D01*
X118490654Y-139186700D01*
X118263946Y-139186700D01*
X118189307Y-139198521D01*
X118040027Y-139222165D01*
X117824419Y-139292219D01*
X117824416Y-139292220D01*
X117622414Y-139395147D01*
X117439014Y-139528393D01*
X117284394Y-139683013D01*
X117223071Y-139716497D01*
X117153379Y-139711513D01*
X117097446Y-139669641D01*
X117086228Y-139651626D01*
X117069155Y-139618118D01*
X117069153Y-139618115D01*
X117069152Y-139618113D01*
X116935905Y-139434713D01*
X116935901Y-139434708D01*
X116775591Y-139274398D01*
X116775586Y-139274394D01*
X116592185Y-139141147D01*
X116592184Y-139141146D01*
X116592182Y-139141145D01*
X116527466Y-139108170D01*
X116390183Y-139038220D01*
X116390180Y-139038219D01*
X116174572Y-138968165D01*
X116062612Y-138950432D01*
X115950654Y-138932700D01*
X115723946Y-138932700D01*
X115649307Y-138944521D01*
X115500027Y-138968165D01*
X115284419Y-139038219D01*
X115284416Y-139038220D01*
X115082414Y-139141147D01*
X114899013Y-139274394D01*
X114899008Y-139274398D01*
X114738698Y-139434708D01*
X114738694Y-139434713D01*
X114605447Y-139618114D01*
X114502520Y-139820116D01*
X114502519Y-139820119D01*
X114432465Y-140035727D01*
X114415410Y-140143408D01*
X114397000Y-140259646D01*
X107961508Y-140259646D01*
X107852010Y-140230306D01*
X107618020Y-140199501D01*
X107618017Y-140199500D01*
X107618011Y-140199500D01*
X107381989Y-140199500D01*
X107381983Y-140199500D01*
X107381979Y-140199501D01*
X107147989Y-140230306D01*
X106920006Y-140291394D01*
X106701954Y-140381714D01*
X106701943Y-140381719D01*
X106497545Y-140499730D01*
X106310302Y-140643406D01*
X106310295Y-140643412D01*
X106143412Y-140810295D01*
X106143406Y-140810302D01*
X105999730Y-140997545D01*
X105881719Y-141201943D01*
X105881714Y-141201954D01*
X105791394Y-141420006D01*
X105730306Y-141647989D01*
X105699501Y-141881979D01*
X105699500Y-141881995D01*
X105000500Y-141881995D01*
X105000500Y-137417213D01*
X115359500Y-137417213D01*
X115359500Y-137582786D01*
X115391797Y-137745157D01*
X115391800Y-137745166D01*
X115455154Y-137898119D01*
X115455161Y-137898132D01*
X115547140Y-138035787D01*
X115547143Y-138035791D01*
X115664208Y-138152856D01*
X115664212Y-138152859D01*
X115801867Y-138244838D01*
X115801880Y-138244845D01*
X115916594Y-138292360D01*
X115954835Y-138308200D01*
X115954837Y-138308200D01*
X115954842Y-138308202D01*
X116117213Y-138340499D01*
X116117216Y-138340500D01*
X116117218Y-138340500D01*
X116282784Y-138340500D01*
X116282785Y-138340499D01*
X116336909Y-138329733D01*
X116445157Y-138308202D01*
X116445160Y-138308200D01*
X116445165Y-138308200D01*
X116598126Y-138244842D01*
X116735788Y-138152859D01*
X116852859Y-138035788D01*
X116944842Y-137898126D01*
X117008200Y-137745165D01*
X117040500Y-137582782D01*
X117040500Y-137417218D01*
X117040500Y-137417215D01*
X117040499Y-137417213D01*
X119159500Y-137417213D01*
X119159500Y-137582786D01*
X119191797Y-137745157D01*
X119191800Y-137745166D01*
X119255154Y-137898119D01*
X119255161Y-137898132D01*
X119347140Y-138035787D01*
X119347143Y-138035791D01*
X119464208Y-138152856D01*
X119464212Y-138152859D01*
X119601867Y-138244838D01*
X119601880Y-138244845D01*
X119716594Y-138292360D01*
X119754835Y-138308200D01*
X119754837Y-138308200D01*
X119754842Y-138308202D01*
X119917213Y-138340499D01*
X119917216Y-138340500D01*
X119917218Y-138340500D01*
X120082784Y-138340500D01*
X120082785Y-138340499D01*
X120136909Y-138329733D01*
X120245157Y-138308202D01*
X120245160Y-138308200D01*
X120245165Y-138308200D01*
X120398126Y-138244842D01*
X120466039Y-138199464D01*
X120537975Y-138151398D01*
X120604652Y-138130520D01*
X120606866Y-138130500D01*
X122262101Y-138130500D01*
X122262102Y-138130499D01*
X122383910Y-138106271D01*
X122498654Y-138058742D01*
X122533007Y-138035788D01*
X122567670Y-138012626D01*
X122634348Y-137991749D01*
X122701728Y-138010234D01*
X122739663Y-138046838D01*
X122757835Y-138074034D01*
X122757838Y-138074038D01*
X122883261Y-138199461D01*
X122883265Y-138199464D01*
X123030746Y-138298009D01*
X123030759Y-138298016D01*
X123133324Y-138340499D01*
X123194634Y-138365894D01*
X123194636Y-138365894D01*
X123194641Y-138365896D01*
X123368604Y-138400499D01*
X123368607Y-138400500D01*
X123368609Y-138400500D01*
X123545993Y-138400500D01*
X123545994Y-138400499D01*
X123603982Y-138388964D01*
X123719958Y-138365896D01*
X123719961Y-138365894D01*
X123719966Y-138365894D01*
X123883847Y-138298013D01*
X123883853Y-138298009D01*
X123908714Y-138281398D01*
X123975392Y-138260520D01*
X123977605Y-138260500D01*
X129074904Y-138260500D01*
X129074905Y-138260499D01*
X129221830Y-138231275D01*
X129360232Y-138173947D01*
X129484791Y-138090719D01*
X129590719Y-137984791D01*
X129590720Y-137984789D01*
X129597786Y-137977723D01*
X129597789Y-137977719D01*
X130169845Y-137405662D01*
X130231166Y-137372179D01*
X130233255Y-137371743D01*
X130262666Y-137365894D01*
X130426547Y-137298013D01*
X130574035Y-137199464D01*
X130699464Y-137074035D01*
X130798013Y-136926547D01*
X130865894Y-136762666D01*
X130867388Y-136755158D01*
X130897836Y-136602085D01*
X130900500Y-136588691D01*
X130900500Y-136411309D01*
X130900500Y-136411306D01*
X130900499Y-136411304D01*
X130865896Y-136237341D01*
X130865893Y-136237332D01*
X130798016Y-136073459D01*
X130798009Y-136073446D01*
X130699464Y-135925965D01*
X130699461Y-135925961D01*
X130574038Y-135800538D01*
X130574034Y-135800535D01*
X130426553Y-135701990D01*
X130426540Y-135701983D01*
X130262667Y-135634106D01*
X130262658Y-135634103D01*
X130088694Y-135599500D01*
X130088691Y-135599500D01*
X129911309Y-135599500D01*
X129911306Y-135599500D01*
X129737341Y-135634103D01*
X129737332Y-135634106D01*
X129573459Y-135701983D01*
X129573446Y-135701990D01*
X129425965Y-135800535D01*
X129425961Y-135800538D01*
X129300538Y-135925961D01*
X129300535Y-135925965D01*
X129201990Y-136073446D01*
X129201983Y-136073459D01*
X129134107Y-136237329D01*
X129134105Y-136237338D01*
X129128271Y-136266666D01*
X129095885Y-136328576D01*
X129094335Y-136330154D01*
X128721310Y-136703181D01*
X128659987Y-136736666D01*
X128633629Y-136739500D01*
X124151523Y-136739500D01*
X124084484Y-136719815D01*
X124038729Y-136667011D01*
X124028785Y-136597853D01*
X124057810Y-136534297D01*
X124063842Y-136527819D01*
X124311476Y-136280185D01*
X124716714Y-135874947D01*
X124778035Y-135841464D01*
X124780202Y-135841013D01*
X124782781Y-135840500D01*
X124782782Y-135840500D01*
X124945165Y-135808200D01*
X125098126Y-135744842D01*
X125235788Y-135652859D01*
X125352859Y-135535788D01*
X125444842Y-135398126D01*
X125447747Y-135391114D01*
X125495918Y-135274816D01*
X125508200Y-135245165D01*
X125509757Y-135237341D01*
X125533938Y-135115773D01*
X125540500Y-135082782D01*
X125540500Y-134917218D01*
X125540500Y-134917215D01*
X125534890Y-134889013D01*
X125534890Y-134889012D01*
X125530884Y-134868872D01*
X144499500Y-134868872D01*
X144499500Y-135131127D01*
X144518418Y-135274816D01*
X144533730Y-135391116D01*
X144586671Y-135588695D01*
X144601602Y-135644418D01*
X144601605Y-135644428D01*
X144701953Y-135886690D01*
X144701958Y-135886700D01*
X144833075Y-136113803D01*
X144992718Y-136321851D01*
X144992726Y-136321860D01*
X145178140Y-136507274D01*
X145178148Y-136507281D01*
X145386196Y-136666924D01*
X145613299Y-136798041D01*
X145613309Y-136798046D01*
X145855571Y-136898394D01*
X145855581Y-136898398D01*
X146108884Y-136966270D01*
X146368880Y-137000500D01*
X146368887Y-137000500D01*
X146631113Y-137000500D01*
X146631120Y-137000500D01*
X146891116Y-136966270D01*
X147144419Y-136898398D01*
X147386697Y-136798043D01*
X147613803Y-136666924D01*
X147821851Y-136507282D01*
X147821855Y-136507277D01*
X147821860Y-136507274D01*
X148007274Y-136321860D01*
X148007277Y-136321855D01*
X148007282Y-136321851D01*
X148166924Y-136113803D01*
X148298043Y-135886697D01*
X148398398Y-135644419D01*
X148465092Y-135395513D01*
X150069500Y-135395513D01*
X150069500Y-135584486D01*
X150099059Y-135771118D01*
X150157454Y-135950836D01*
X150219931Y-136073453D01*
X150243240Y-136119199D01*
X150354310Y-136272073D01*
X150487927Y-136405690D01*
X150640801Y-136516760D01*
X150720347Y-136557290D01*
X150809163Y-136602545D01*
X150809165Y-136602545D01*
X150809168Y-136602547D01*
X150905497Y-136633846D01*
X150988881Y-136660940D01*
X151175514Y-136690500D01*
X151175519Y-136690500D01*
X151364486Y-136690500D01*
X151551118Y-136660940D01*
X151555550Y-136659500D01*
X151730832Y-136602547D01*
X151899199Y-136516760D01*
X152052073Y-136405690D01*
X152185690Y-136272073D01*
X152296760Y-136119199D01*
X152382547Y-135950832D01*
X152402332Y-135889938D01*
X152441768Y-135832266D01*
X152506126Y-135805067D01*
X152574973Y-135816981D01*
X152626449Y-135864225D01*
X152638193Y-135889941D01*
X152657914Y-135950637D01*
X152743666Y-136118933D01*
X152762116Y-136144328D01*
X153319696Y-135586748D01*
X153341349Y-135667553D01*
X153401909Y-135772446D01*
X153487554Y-135858091D01*
X153592447Y-135918651D01*
X153673250Y-135940302D01*
X153115669Y-136497882D01*
X153115670Y-136497883D01*
X153141059Y-136516329D01*
X153309362Y-136602085D01*
X153488997Y-136660451D01*
X153675553Y-136690000D01*
X153864447Y-136690000D01*
X154051002Y-136660451D01*
X154230637Y-136602085D01*
X154398937Y-136516331D01*
X154424328Y-136497883D01*
X154424328Y-136497882D01*
X153866749Y-135940302D01*
X153947553Y-135918651D01*
X154052446Y-135858091D01*
X154138091Y-135772446D01*
X154198651Y-135667553D01*
X154220302Y-135586748D01*
X154777882Y-136144328D01*
X154777883Y-136144328D01*
X154796331Y-136118937D01*
X154882085Y-135950637D01*
X154940451Y-135771002D01*
X154970000Y-135584447D01*
X154970000Y-135395552D01*
X154940451Y-135208997D01*
X154882085Y-135029362D01*
X154826931Y-134921116D01*
X154826930Y-134921114D01*
X154800311Y-134868872D01*
X156539500Y-134868872D01*
X156539500Y-135131127D01*
X156558418Y-135274816D01*
X156573730Y-135391116D01*
X156626671Y-135588695D01*
X156641602Y-135644418D01*
X156641605Y-135644428D01*
X156741953Y-135886690D01*
X156741958Y-135886700D01*
X156873075Y-136113803D01*
X157032718Y-136321851D01*
X157032726Y-136321860D01*
X157218140Y-136507274D01*
X157218148Y-136507281D01*
X157426196Y-136666924D01*
X157653299Y-136798041D01*
X157653309Y-136798046D01*
X157895571Y-136898394D01*
X157895581Y-136898398D01*
X158148884Y-136966270D01*
X158408880Y-137000500D01*
X158408887Y-137000500D01*
X158671113Y-137000500D01*
X158671120Y-137000500D01*
X158931116Y-136966270D01*
X159184419Y-136898398D01*
X159426697Y-136798043D01*
X159653803Y-136666924D01*
X159861851Y-136507282D01*
X159861855Y-136507277D01*
X159861860Y-136507274D01*
X160047274Y-136321860D01*
X160047277Y-136321855D01*
X160047282Y-136321851D01*
X160206924Y-136113803D01*
X160338043Y-135886697D01*
X160438398Y-135644419D01*
X160506270Y-135391116D01*
X160540500Y-135131120D01*
X160540500Y-134868880D01*
X160506270Y-134608884D01*
X160438398Y-134355581D01*
X160423473Y-134319548D01*
X160338046Y-134113309D01*
X160338041Y-134113299D01*
X160206924Y-133886196D01*
X160057757Y-133691800D01*
X160047282Y-133678149D01*
X160047281Y-133678148D01*
X160047274Y-133678140D01*
X159861860Y-133492726D01*
X159861851Y-133492718D01*
X159653803Y-133333075D01*
X159426700Y-133201958D01*
X159426690Y-133201953D01*
X159184428Y-133101605D01*
X159184421Y-133101603D01*
X159184419Y-133101602D01*
X158931116Y-133033730D01*
X158873339Y-133026123D01*
X158671127Y-132999500D01*
X158671120Y-132999500D01*
X158408880Y-132999500D01*
X158408872Y-132999500D01*
X158177772Y-133029926D01*
X158148884Y-133033730D01*
X158005782Y-133072074D01*
X157895581Y-133101602D01*
X157895571Y-133101605D01*
X157653309Y-133201953D01*
X157653299Y-133201958D01*
X157426196Y-133333075D01*
X157218148Y-133492718D01*
X157032718Y-133678148D01*
X156873075Y-133886196D01*
X156741958Y-134113299D01*
X156741953Y-134113309D01*
X156641605Y-134355571D01*
X156641602Y-134355581D01*
X156575609Y-134601874D01*
X156573730Y-134608885D01*
X156539500Y-134868872D01*
X154800311Y-134868872D01*
X154796331Y-134861061D01*
X154777883Y-134835670D01*
X154777882Y-134835669D01*
X154220302Y-135393250D01*
X154198651Y-135312447D01*
X154138091Y-135207554D01*
X154052446Y-135121909D01*
X153947553Y-135061349D01*
X153866749Y-135039697D01*
X154424328Y-134482116D01*
X154398933Y-134463666D01*
X154230637Y-134377914D01*
X154051002Y-134319548D01*
X153864447Y-134290000D01*
X153675553Y-134290000D01*
X153488997Y-134319548D01*
X153309362Y-134377914D01*
X153141060Y-134463669D01*
X153115670Y-134482116D01*
X153115669Y-134482116D01*
X153673250Y-135039697D01*
X153592447Y-135061349D01*
X153487554Y-135121909D01*
X153401909Y-135207554D01*
X153341349Y-135312447D01*
X153319697Y-135393250D01*
X152762116Y-134835669D01*
X152762116Y-134835670D01*
X152743669Y-134861060D01*
X152657915Y-135029361D01*
X152638193Y-135090059D01*
X152598755Y-135147734D01*
X152534396Y-135174932D01*
X152465550Y-135163017D01*
X152414074Y-135115773D01*
X152402332Y-135090061D01*
X152382547Y-135029168D01*
X152296760Y-134860801D01*
X152185690Y-134707927D01*
X152052073Y-134574310D01*
X151899199Y-134463240D01*
X151730836Y-134377454D01*
X151551118Y-134319059D01*
X151364486Y-134289500D01*
X151364481Y-134289500D01*
X151175519Y-134289500D01*
X151175514Y-134289500D01*
X150988881Y-134319059D01*
X150809163Y-134377454D01*
X150640800Y-134463240D01*
X150553579Y-134526610D01*
X150487927Y-134574310D01*
X150487925Y-134574312D01*
X150487924Y-134574312D01*
X150354312Y-134707924D01*
X150354312Y-134707925D01*
X150354310Y-134707927D01*
X150327261Y-134745157D01*
X150243240Y-134860800D01*
X150157454Y-135029163D01*
X150099059Y-135208881D01*
X150069500Y-135395513D01*
X148465092Y-135395513D01*
X148466270Y-135391116D01*
X148500500Y-135131120D01*
X148500500Y-134868880D01*
X148466270Y-134608884D01*
X148398398Y-134355581D01*
X148383473Y-134319548D01*
X148298046Y-134113309D01*
X148298041Y-134113299D01*
X148166924Y-133886196D01*
X148017757Y-133691800D01*
X148007282Y-133678149D01*
X148007281Y-133678148D01*
X148007274Y-133678140D01*
X147821860Y-133492726D01*
X147821851Y-133492718D01*
X147613803Y-133333075D01*
X147386700Y-133201958D01*
X147386690Y-133201953D01*
X147144428Y-133101605D01*
X147144421Y-133101603D01*
X147144419Y-133101602D01*
X146891116Y-133033730D01*
X146833339Y-133026123D01*
X146631127Y-132999500D01*
X146631120Y-132999500D01*
X146368880Y-132999500D01*
X146368872Y-132999500D01*
X146137772Y-133029926D01*
X146108884Y-133033730D01*
X145965782Y-133072074D01*
X145855581Y-133101602D01*
X145855571Y-133101605D01*
X145613309Y-133201953D01*
X145613299Y-133201958D01*
X145386196Y-133333075D01*
X145178148Y-133492718D01*
X144992718Y-133678148D01*
X144833075Y-133886196D01*
X144701958Y-134113299D01*
X144701953Y-134113309D01*
X144601605Y-134355571D01*
X144601602Y-134355581D01*
X144535609Y-134601874D01*
X144533730Y-134608885D01*
X144499500Y-134868872D01*
X125530884Y-134868872D01*
X125508202Y-134754842D01*
X125508199Y-134754833D01*
X125504194Y-134745165D01*
X125488769Y-134707924D01*
X125444845Y-134601880D01*
X125444838Y-134601867D01*
X125352859Y-134464212D01*
X125352856Y-134464208D01*
X125235791Y-134347143D01*
X125235787Y-134347140D01*
X125098132Y-134255161D01*
X125098119Y-134255154D01*
X124945166Y-134191800D01*
X124945157Y-134191797D01*
X124782785Y-134159500D01*
X124782782Y-134159500D01*
X124617218Y-134159500D01*
X124617215Y-134159500D01*
X124454842Y-134191797D01*
X124454833Y-134191800D01*
X124301880Y-134255154D01*
X124301867Y-134255161D01*
X124164212Y-134347140D01*
X124164208Y-134347143D01*
X124047143Y-134464208D01*
X124047140Y-134464212D01*
X123955161Y-134601867D01*
X123955154Y-134601880D01*
X123891800Y-134754833D01*
X123891798Y-134754841D01*
X123858986Y-134919798D01*
X123826601Y-134981709D01*
X123825050Y-134983287D01*
X121975158Y-136833181D01*
X121913835Y-136866666D01*
X121887477Y-136869500D01*
X120606866Y-136869500D01*
X120539827Y-136849815D01*
X120537975Y-136848602D01*
X120398132Y-136755161D01*
X120398119Y-136755154D01*
X120245166Y-136691800D01*
X120245157Y-136691797D01*
X120082785Y-136659500D01*
X120082782Y-136659500D01*
X119917218Y-136659500D01*
X119917215Y-136659500D01*
X119754842Y-136691797D01*
X119754833Y-136691800D01*
X119601880Y-136755154D01*
X119601867Y-136755161D01*
X119464212Y-136847140D01*
X119464208Y-136847143D01*
X119347143Y-136964208D01*
X119347140Y-136964212D01*
X119255161Y-137101867D01*
X119255154Y-137101880D01*
X119191800Y-137254833D01*
X119191797Y-137254842D01*
X119159500Y-137417213D01*
X117040499Y-137417213D01*
X117008202Y-137254842D01*
X117008199Y-137254833D01*
X116944845Y-137101880D01*
X116944838Y-137101867D01*
X116851398Y-136962024D01*
X116830520Y-136895346D01*
X116830500Y-136893133D01*
X116830500Y-136524500D01*
X116850185Y-136457461D01*
X116902989Y-136411706D01*
X116954500Y-136400500D01*
X117088693Y-136400500D01*
X117088694Y-136400499D01*
X117169505Y-136384425D01*
X117262658Y-136365896D01*
X117262661Y-136365894D01*
X117262666Y-136365894D01*
X117426547Y-136298013D01*
X117426553Y-136298009D01*
X117451414Y-136281398D01*
X117518092Y-136260520D01*
X117520305Y-136260500D01*
X121076995Y-136260500D01*
X121144034Y-136280185D01*
X121145886Y-136281398D01*
X121170749Y-136298011D01*
X121170751Y-136298011D01*
X121170753Y-136298013D01*
X121334634Y-136365894D01*
X121334636Y-136365894D01*
X121334641Y-136365896D01*
X121508604Y-136400499D01*
X121508607Y-136400500D01*
X121508609Y-136400500D01*
X121685993Y-136400500D01*
X121685994Y-136400499D01*
X121766805Y-136384425D01*
X121859958Y-136365896D01*
X121859961Y-136365894D01*
X121859966Y-136365894D01*
X121999835Y-136307958D01*
X122023840Y-136298016D01*
X122023840Y-136298015D01*
X122023847Y-136298013D01*
X122171335Y-136199464D01*
X122296764Y-136074035D01*
X122395313Y-135926547D01*
X122463194Y-135762666D01*
X122466740Y-135744842D01*
X122497799Y-135588695D01*
X122497800Y-135588693D01*
X122497800Y-135411306D01*
X122497799Y-135411304D01*
X122463196Y-135237341D01*
X122463193Y-135237332D01*
X122451456Y-135208997D01*
X122395313Y-135073453D01*
X122394799Y-135072212D01*
X122387330Y-135002743D01*
X122406257Y-134955870D01*
X122444842Y-134898126D01*
X122508200Y-134745165D01*
X122515608Y-134707925D01*
X122540499Y-134582786D01*
X122540500Y-134582784D01*
X122540500Y-134417215D01*
X122540499Y-134417213D01*
X122508202Y-134254842D01*
X122508199Y-134254833D01*
X122444845Y-134101880D01*
X122444838Y-134101867D01*
X122352859Y-133964212D01*
X122352856Y-133964208D01*
X122235791Y-133847143D01*
X122235787Y-133847140D01*
X122098132Y-133755161D01*
X122098119Y-133755154D01*
X121945166Y-133691800D01*
X121945157Y-133691797D01*
X121782785Y-133659500D01*
X121782782Y-133659500D01*
X121617218Y-133659500D01*
X121617215Y-133659500D01*
X121454842Y-133691797D01*
X121454833Y-133691800D01*
X121301880Y-133755154D01*
X121301867Y-133755161D01*
X121162025Y-133848602D01*
X121095348Y-133869480D01*
X121093134Y-133869500D01*
X117105154Y-133869500D01*
X117105134Y-133869499D01*
X117099020Y-133869499D01*
X116974821Y-133869499D01*
X116974819Y-133869499D01*
X116853016Y-133893727D01*
X116853008Y-133893729D01*
X116738270Y-133941254D01*
X116738268Y-133941255D01*
X116635000Y-134010257D01*
X116634996Y-134010260D01*
X115937334Y-134707924D01*
X115798082Y-134847176D01*
X115798080Y-134847178D01*
X115756246Y-134889012D01*
X115710258Y-134934999D01*
X115673681Y-134989742D01*
X115641256Y-135038268D01*
X115593730Y-135153007D01*
X115593727Y-135153017D01*
X115582426Y-135209834D01*
X115569500Y-135274816D01*
X115569500Y-136893133D01*
X115549815Y-136960172D01*
X115548602Y-136962024D01*
X115455161Y-137101867D01*
X115455154Y-137101880D01*
X115391800Y-137254833D01*
X115391797Y-137254842D01*
X115359500Y-137417213D01*
X105000500Y-137417213D01*
X105000500Y-125846646D01*
X112059700Y-125846646D01*
X112059700Y-126073353D01*
X112095165Y-126297272D01*
X112165219Y-126512880D01*
X112165220Y-126512883D01*
X112268147Y-126714885D01*
X112401394Y-126898286D01*
X112401398Y-126898291D01*
X112561708Y-127058601D01*
X112561713Y-127058605D01*
X112659542Y-127129682D01*
X112702208Y-127185012D01*
X112708187Y-127254625D01*
X112675582Y-127316420D01*
X112659542Y-127330318D01*
X112561713Y-127401394D01*
X112561708Y-127401398D01*
X112401398Y-127561708D01*
X112401394Y-127561713D01*
X112268147Y-127745114D01*
X112165220Y-127947116D01*
X112165219Y-127947119D01*
X112095165Y-128162727D01*
X112059700Y-128386646D01*
X112059700Y-128613353D01*
X112095165Y-128837272D01*
X112165219Y-129052880D01*
X112165220Y-129052883D01*
X112268147Y-129254885D01*
X112401394Y-129438286D01*
X112401398Y-129438291D01*
X112561708Y-129598601D01*
X112561713Y-129598605D01*
X112659542Y-129669682D01*
X112702208Y-129725012D01*
X112708187Y-129794625D01*
X112675582Y-129856420D01*
X112659542Y-129870318D01*
X112561713Y-129941394D01*
X112561708Y-129941398D01*
X112401398Y-130101708D01*
X112401394Y-130101713D01*
X112268147Y-130285114D01*
X112165220Y-130487116D01*
X112165219Y-130487119D01*
X112095165Y-130702727D01*
X112059700Y-130926646D01*
X112059700Y-131153353D01*
X112095165Y-131377272D01*
X112165219Y-131592880D01*
X112165220Y-131592883D01*
X112235170Y-131730166D01*
X112266870Y-131792380D01*
X112268147Y-131794885D01*
X112401394Y-131978286D01*
X112401398Y-131978291D01*
X112561708Y-132138601D01*
X112561713Y-132138605D01*
X112721684Y-132254829D01*
X112745118Y-132271855D01*
X112877166Y-132339137D01*
X112947116Y-132374779D01*
X112947119Y-132374780D01*
X112976992Y-132384486D01*
X113162729Y-132444835D01*
X113386646Y-132480300D01*
X113386647Y-132480300D01*
X113613353Y-132480300D01*
X113613354Y-132480300D01*
X113837271Y-132444835D01*
X114052883Y-132374779D01*
X114254882Y-132271855D01*
X114359958Y-132195513D01*
X150069500Y-132195513D01*
X150069500Y-132384486D01*
X150099059Y-132571118D01*
X150157454Y-132750836D01*
X150204984Y-132844118D01*
X150243240Y-132919199D01*
X150354310Y-133072073D01*
X150487927Y-133205690D01*
X150640801Y-133316760D01*
X150701218Y-133347544D01*
X150809163Y-133402545D01*
X150809165Y-133402545D01*
X150809168Y-133402547D01*
X150905333Y-133433793D01*
X150988881Y-133460940D01*
X151175514Y-133490500D01*
X151175519Y-133490500D01*
X151364486Y-133490500D01*
X151551118Y-133460940D01*
X151730832Y-133402547D01*
X151899199Y-133316760D01*
X152052073Y-133205690D01*
X152185690Y-133072073D01*
X152296760Y-132919199D01*
X152335016Y-132844116D01*
X152382988Y-132793322D01*
X152450809Y-132776526D01*
X152516944Y-132799063D01*
X152560396Y-132853777D01*
X152569500Y-132900411D01*
X152569500Y-133037869D01*
X152569501Y-133037876D01*
X152575908Y-133097483D01*
X152626202Y-133232328D01*
X152626206Y-133232335D01*
X152712452Y-133347544D01*
X152712455Y-133347547D01*
X152827664Y-133433793D01*
X152827671Y-133433797D01*
X152962517Y-133484091D01*
X152962516Y-133484091D01*
X152969444Y-133484835D01*
X153022127Y-133490500D01*
X154517872Y-133490499D01*
X154577483Y-133484091D01*
X154712331Y-133433796D01*
X154827546Y-133347546D01*
X154913796Y-133232331D01*
X154964091Y-133097483D01*
X154970500Y-133037873D01*
X154970499Y-131542128D01*
X154964091Y-131482517D01*
X154923732Y-131374310D01*
X154913797Y-131347671D01*
X154913793Y-131347664D01*
X154827547Y-131232455D01*
X154827544Y-131232452D01*
X154712335Y-131146206D01*
X154712328Y-131146202D01*
X154577482Y-131095908D01*
X154577483Y-131095908D01*
X154517883Y-131089501D01*
X154517881Y-131089500D01*
X154517873Y-131089500D01*
X154517864Y-131089500D01*
X153022129Y-131089500D01*
X153022123Y-131089501D01*
X152962516Y-131095908D01*
X152827671Y-131146202D01*
X152827664Y-131146206D01*
X152712455Y-131232452D01*
X152712452Y-131232455D01*
X152626206Y-131347664D01*
X152626202Y-131347671D01*
X152575908Y-131482517D01*
X152569501Y-131542116D01*
X152569501Y-131542123D01*
X152569500Y-131542135D01*
X152569500Y-131679586D01*
X152549815Y-131746625D01*
X152497011Y-131792380D01*
X152427853Y-131802324D01*
X152364297Y-131773299D01*
X152335015Y-131735881D01*
X152296759Y-131660800D01*
X152247414Y-131592883D01*
X152185690Y-131507927D01*
X152052073Y-131374310D01*
X151899199Y-131263240D01*
X151730836Y-131177454D01*
X151551118Y-131119059D01*
X151364486Y-131089500D01*
X151364481Y-131089500D01*
X151175519Y-131089500D01*
X151175514Y-131089500D01*
X150988881Y-131119059D01*
X150809163Y-131177454D01*
X150640800Y-131263240D01*
X150553579Y-131326610D01*
X150487927Y-131374310D01*
X150487925Y-131374312D01*
X150487924Y-131374312D01*
X150354312Y-131507924D01*
X150354312Y-131507925D01*
X150354310Y-131507927D01*
X150306610Y-131573579D01*
X150243240Y-131660800D01*
X150157454Y-131829163D01*
X150099059Y-132008881D01*
X150069500Y-132195513D01*
X114359958Y-132195513D01*
X114438293Y-132138600D01*
X114598600Y-131978293D01*
X114731855Y-131794882D01*
X114834779Y-131592883D01*
X114904835Y-131377271D01*
X114940300Y-131153354D01*
X114940300Y-130926646D01*
X114904835Y-130702729D01*
X114834779Y-130487117D01*
X114834779Y-130487116D01*
X114799137Y-130417166D01*
X114731855Y-130285118D01*
X114714829Y-130261684D01*
X114598605Y-130101713D01*
X114598601Y-130101708D01*
X114438293Y-129941400D01*
X114438285Y-129941394D01*
X114340456Y-129870317D01*
X114297791Y-129814989D01*
X114291812Y-129745376D01*
X114324417Y-129683580D01*
X114340456Y-129669682D01*
X114438293Y-129598600D01*
X114598600Y-129438293D01*
X114731855Y-129254882D01*
X114834779Y-129052883D01*
X114904835Y-128837271D01*
X114940300Y-128613354D01*
X114940300Y-128386646D01*
X114904835Y-128162729D01*
X114834779Y-127947117D01*
X114834779Y-127947116D01*
X114799137Y-127877166D01*
X114731855Y-127745118D01*
X114714829Y-127721684D01*
X114598605Y-127561713D01*
X114598601Y-127561708D01*
X114438293Y-127401400D01*
X114438285Y-127401394D01*
X114340456Y-127330317D01*
X114297791Y-127274989D01*
X114291812Y-127205376D01*
X114324417Y-127143580D01*
X114340456Y-127129682D01*
X114438293Y-127058600D01*
X114598600Y-126898293D01*
X114731855Y-126714882D01*
X114834779Y-126512883D01*
X114904835Y-126297271D01*
X114940300Y-126073354D01*
X114940300Y-125846646D01*
X114904835Y-125622729D01*
X114834779Y-125407117D01*
X114834779Y-125407116D01*
X114799137Y-125337166D01*
X114731855Y-125205118D01*
X114714829Y-125181684D01*
X114598605Y-125021713D01*
X114598601Y-125021708D01*
X114438291Y-124861398D01*
X114438286Y-124861394D01*
X114254885Y-124728147D01*
X114254884Y-124728146D01*
X114254882Y-124728145D01*
X114190166Y-124695170D01*
X114052883Y-124625220D01*
X114052880Y-124625219D01*
X113837272Y-124555165D01*
X113725312Y-124537432D01*
X113613354Y-124519700D01*
X113386646Y-124519700D01*
X113312007Y-124531521D01*
X113162727Y-124555165D01*
X112947119Y-124625219D01*
X112947116Y-124625220D01*
X112745114Y-124728147D01*
X112561713Y-124861394D01*
X112561708Y-124861398D01*
X112401398Y-125021708D01*
X112401394Y-125021713D01*
X112268147Y-125205114D01*
X112165220Y-125407116D01*
X112165219Y-125407119D01*
X112095165Y-125622727D01*
X112059700Y-125846646D01*
X105000500Y-125846646D01*
X105000500Y-122417213D01*
X113659500Y-122417213D01*
X113659500Y-122582786D01*
X113691797Y-122745157D01*
X113691800Y-122745166D01*
X113755154Y-122898119D01*
X113755161Y-122898132D01*
X113847140Y-123035787D01*
X113847143Y-123035791D01*
X113964208Y-123152856D01*
X113964212Y-123152859D01*
X114101867Y-123244838D01*
X114101880Y-123244845D01*
X114216594Y-123292360D01*
X114254835Y-123308200D01*
X114254837Y-123308200D01*
X114254842Y-123308202D01*
X114417213Y-123340499D01*
X114417216Y-123340500D01*
X114417218Y-123340500D01*
X114582784Y-123340500D01*
X114582785Y-123340499D01*
X114636909Y-123329733D01*
X114745157Y-123308202D01*
X114745160Y-123308200D01*
X114745165Y-123308200D01*
X114898126Y-123244842D01*
X115035788Y-123152859D01*
X115035787Y-123152859D01*
X115037975Y-123151398D01*
X115104652Y-123130520D01*
X115106866Y-123130500D01*
X126893134Y-123130500D01*
X126960173Y-123150185D01*
X126962025Y-123151398D01*
X127101867Y-123244838D01*
X127101880Y-123244845D01*
X127216594Y-123292360D01*
X127254835Y-123308200D01*
X127254837Y-123308200D01*
X127254842Y-123308202D01*
X127417213Y-123340499D01*
X127417216Y-123340500D01*
X127417218Y-123340500D01*
X127582784Y-123340500D01*
X127582785Y-123340499D01*
X127636909Y-123329733D01*
X127745157Y-123308202D01*
X127745160Y-123308200D01*
X127745165Y-123308200D01*
X127898126Y-123244842D01*
X128035788Y-123152859D01*
X128152859Y-123035788D01*
X128244842Y-122898126D01*
X128308200Y-122745165D01*
X128340500Y-122582782D01*
X128340500Y-122417218D01*
X128340500Y-122417215D01*
X128340499Y-122417213D01*
X128308202Y-122254842D01*
X128308199Y-122254833D01*
X128244845Y-122101880D01*
X128244838Y-122101867D01*
X128152859Y-121964212D01*
X128152856Y-121964208D01*
X128035791Y-121847143D01*
X128035787Y-121847140D01*
X127898132Y-121755161D01*
X127898119Y-121755154D01*
X127745166Y-121691800D01*
X127745157Y-121691797D01*
X127582785Y-121659500D01*
X127582782Y-121659500D01*
X127417218Y-121659500D01*
X127417215Y-121659500D01*
X127254842Y-121691797D01*
X127254833Y-121691800D01*
X127101880Y-121755154D01*
X127101867Y-121755161D01*
X126962025Y-121848602D01*
X126895348Y-121869480D01*
X126893134Y-121869500D01*
X126434563Y-121869500D01*
X126367524Y-121849815D01*
X126321769Y-121797011D01*
X126311825Y-121727853D01*
X126312946Y-121721309D01*
X126340499Y-121582786D01*
X126340500Y-121582784D01*
X126340500Y-121417215D01*
X126340499Y-121417213D01*
X126308202Y-121254842D01*
X126308199Y-121254833D01*
X126244845Y-121101880D01*
X126244838Y-121101867D01*
X126151398Y-120962024D01*
X126130520Y-120895346D01*
X126130500Y-120893133D01*
X126130500Y-119606866D01*
X126150185Y-119539827D01*
X126151398Y-119537975D01*
X126244838Y-119398132D01*
X126244838Y-119398131D01*
X126244842Y-119398126D01*
X126308200Y-119245165D01*
X126340500Y-119082782D01*
X126340500Y-118917218D01*
X126340500Y-118917215D01*
X126340499Y-118917213D01*
X126308202Y-118754842D01*
X126308199Y-118754833D01*
X126244845Y-118601880D01*
X126244838Y-118601867D01*
X126152859Y-118464212D01*
X126152856Y-118464208D01*
X126035791Y-118347143D01*
X126035787Y-118347140D01*
X125898132Y-118255161D01*
X125898119Y-118255154D01*
X125745166Y-118191800D01*
X125745157Y-118191797D01*
X125582785Y-118159500D01*
X125582782Y-118159500D01*
X125417218Y-118159500D01*
X125417215Y-118159500D01*
X125254842Y-118191797D01*
X125254833Y-118191800D01*
X125101880Y-118255154D01*
X125101867Y-118255161D01*
X125068891Y-118277196D01*
X125002214Y-118298074D01*
X124934833Y-118279590D01*
X124931109Y-118277196D01*
X124898132Y-118255161D01*
X124898119Y-118255154D01*
X124745166Y-118191800D01*
X124745157Y-118191797D01*
X124582785Y-118159500D01*
X124582782Y-118159500D01*
X124417218Y-118159500D01*
X124417215Y-118159500D01*
X124254842Y-118191797D01*
X124254833Y-118191800D01*
X124101880Y-118255154D01*
X124101867Y-118255161D01*
X123964212Y-118347140D01*
X123964208Y-118347143D01*
X123847143Y-118464208D01*
X123847140Y-118464212D01*
X123755161Y-118601867D01*
X123755154Y-118601880D01*
X123691800Y-118754833D01*
X123691797Y-118754842D01*
X123659500Y-118917213D01*
X123659500Y-119082786D01*
X123691797Y-119245157D01*
X123691800Y-119245166D01*
X123755154Y-119398119D01*
X123755161Y-119398132D01*
X123848602Y-119537975D01*
X123869480Y-119604652D01*
X123869500Y-119606866D01*
X123869500Y-120893133D01*
X123849815Y-120960172D01*
X123848602Y-120962024D01*
X123755161Y-121101867D01*
X123755154Y-121101880D01*
X123691800Y-121254833D01*
X123691797Y-121254842D01*
X123659500Y-121417213D01*
X123659500Y-121582786D01*
X123687054Y-121721309D01*
X123680827Y-121790900D01*
X123637964Y-121846078D01*
X123572074Y-121869322D01*
X123565437Y-121869500D01*
X115106866Y-121869500D01*
X115039827Y-121849815D01*
X115037975Y-121848602D01*
X114898132Y-121755161D01*
X114898119Y-121755154D01*
X114745166Y-121691800D01*
X114745157Y-121691797D01*
X114582785Y-121659500D01*
X114582782Y-121659500D01*
X114417218Y-121659500D01*
X114417215Y-121659500D01*
X114254842Y-121691797D01*
X114254833Y-121691800D01*
X114101880Y-121755154D01*
X114101867Y-121755161D01*
X113964212Y-121847140D01*
X113964208Y-121847143D01*
X113847143Y-121964208D01*
X113847140Y-121964212D01*
X113755161Y-122101867D01*
X113755154Y-122101880D01*
X113691800Y-122254833D01*
X113691797Y-122254842D01*
X113659500Y-122417213D01*
X105000500Y-122417213D01*
X105000500Y-117381902D01*
X140419500Y-117381902D01*
X140419500Y-117618097D01*
X140456446Y-117851368D01*
X140529433Y-118075996D01*
X140633170Y-118279590D01*
X140636657Y-118286433D01*
X140775483Y-118477510D01*
X140942490Y-118644517D01*
X141133567Y-118783343D01*
X141232991Y-118834002D01*
X141344003Y-118890566D01*
X141344005Y-118890566D01*
X141344008Y-118890568D01*
X141426013Y-118917213D01*
X141568631Y-118963553D01*
X141801903Y-119000500D01*
X141801908Y-119000500D01*
X142038097Y-119000500D01*
X142271368Y-118963553D01*
X142495992Y-118890568D01*
X142706433Y-118783343D01*
X142897510Y-118644517D01*
X143064517Y-118477510D01*
X143203343Y-118286433D01*
X143310568Y-118075992D01*
X143383553Y-117851368D01*
X143420500Y-117618097D01*
X143420500Y-117381902D01*
X145499500Y-117381902D01*
X145499500Y-117618097D01*
X145536446Y-117851368D01*
X145609433Y-118075996D01*
X145713170Y-118279590D01*
X145716657Y-118286433D01*
X145855483Y-118477510D01*
X146022490Y-118644517D01*
X146213567Y-118783343D01*
X146312991Y-118834002D01*
X146424003Y-118890566D01*
X146424005Y-118890566D01*
X146424008Y-118890568D01*
X146506013Y-118917213D01*
X146648631Y-118963553D01*
X146881903Y-119000500D01*
X146881908Y-119000500D01*
X147118097Y-119000500D01*
X147351368Y-118963553D01*
X147575992Y-118890568D01*
X147786433Y-118783343D01*
X147977510Y-118644517D01*
X148144517Y-118477510D01*
X148283343Y-118286433D01*
X148390568Y-118075992D01*
X148463553Y-117851368D01*
X148500500Y-117618097D01*
X148500500Y-117381902D01*
X148463553Y-117148631D01*
X148390566Y-116924003D01*
X148283342Y-116713566D01*
X148144517Y-116522490D01*
X147977510Y-116355483D01*
X147786433Y-116216657D01*
X147575996Y-116109433D01*
X147351368Y-116036446D01*
X147118097Y-115999500D01*
X147118092Y-115999500D01*
X146881908Y-115999500D01*
X146881903Y-115999500D01*
X146648631Y-116036446D01*
X146424003Y-116109433D01*
X146213566Y-116216657D01*
X146104550Y-116295862D01*
X146022490Y-116355483D01*
X146022488Y-116355485D01*
X146022487Y-116355485D01*
X145855485Y-116522487D01*
X145855485Y-116522488D01*
X145855483Y-116522490D01*
X145795862Y-116604550D01*
X145716657Y-116713566D01*
X145609433Y-116924003D01*
X145536446Y-117148631D01*
X145499500Y-117381902D01*
X143420500Y-117381902D01*
X143383553Y-117148631D01*
X143310566Y-116924003D01*
X143203342Y-116713566D01*
X143064517Y-116522490D01*
X142897510Y-116355483D01*
X142706433Y-116216657D01*
X142495996Y-116109433D01*
X142271368Y-116036446D01*
X142038097Y-115999500D01*
X142038092Y-115999500D01*
X141801908Y-115999500D01*
X141801903Y-115999500D01*
X141568631Y-116036446D01*
X141344003Y-116109433D01*
X141133566Y-116216657D01*
X141024550Y-116295862D01*
X140942490Y-116355483D01*
X140942488Y-116355485D01*
X140942487Y-116355485D01*
X140775485Y-116522487D01*
X140775485Y-116522488D01*
X140775483Y-116522490D01*
X140715862Y-116604550D01*
X140636657Y-116713566D01*
X140529433Y-116924003D01*
X140456446Y-117148631D01*
X140419500Y-117381902D01*
X105000500Y-117381902D01*
X105000500Y-111881995D01*
X105699500Y-111881995D01*
X105699500Y-112118004D01*
X105699501Y-112118020D01*
X105730306Y-112352010D01*
X105791394Y-112579993D01*
X105881714Y-112798045D01*
X105881719Y-112798056D01*
X105915516Y-112856593D01*
X105999727Y-113002450D01*
X105999729Y-113002453D01*
X105999730Y-113002454D01*
X106143406Y-113189697D01*
X106143412Y-113189704D01*
X106310295Y-113356587D01*
X106310301Y-113356592D01*
X106497550Y-113500273D01*
X106628918Y-113576118D01*
X106701943Y-113618280D01*
X106701948Y-113618282D01*
X106701951Y-113618284D01*
X106920007Y-113708606D01*
X107147986Y-113769693D01*
X107381989Y-113800500D01*
X107381996Y-113800500D01*
X107618004Y-113800500D01*
X107618011Y-113800500D01*
X107852014Y-113769693D01*
X108079993Y-113708606D01*
X108298049Y-113618284D01*
X108502450Y-113500273D01*
X108689699Y-113356592D01*
X108856592Y-113189699D01*
X109000273Y-113002450D01*
X109118284Y-112798049D01*
X109208606Y-112579993D01*
X109269693Y-112352014D01*
X109300500Y-112118011D01*
X109300500Y-111881989D01*
X109269693Y-111647986D01*
X109208606Y-111420007D01*
X109192861Y-111381995D01*
X172699500Y-111381995D01*
X172699500Y-111618004D01*
X172699501Y-111618020D01*
X172730306Y-111852010D01*
X172791394Y-112079993D01*
X172881714Y-112298045D01*
X172881719Y-112298056D01*
X172952677Y-112420957D01*
X172999727Y-112502450D01*
X172999729Y-112502453D01*
X172999730Y-112502454D01*
X173143406Y-112689697D01*
X173143412Y-112689704D01*
X173310295Y-112856587D01*
X173310301Y-112856592D01*
X173497550Y-113000273D01*
X173628918Y-113076118D01*
X173701943Y-113118280D01*
X173701948Y-113118282D01*
X173701951Y-113118284D01*
X173920007Y-113208606D01*
X174147986Y-113269693D01*
X174381989Y-113300500D01*
X174381996Y-113300500D01*
X174618004Y-113300500D01*
X174618011Y-113300500D01*
X174852014Y-113269693D01*
X175079993Y-113208606D01*
X175298049Y-113118284D01*
X175502450Y-113000273D01*
X175689699Y-112856592D01*
X175856592Y-112689699D01*
X176000273Y-112502450D01*
X176118284Y-112298049D01*
X176208606Y-112079993D01*
X176269693Y-111852014D01*
X176300500Y-111618011D01*
X176300500Y-111381989D01*
X176269693Y-111147986D01*
X176208606Y-110920007D01*
X176118284Y-110701951D01*
X176118282Y-110701948D01*
X176118280Y-110701943D01*
X176076118Y-110628918D01*
X176000273Y-110497550D01*
X175856592Y-110310301D01*
X175856587Y-110310295D01*
X175689704Y-110143412D01*
X175689697Y-110143406D01*
X175502454Y-109999730D01*
X175502453Y-109999729D01*
X175502450Y-109999727D01*
X175420957Y-109952677D01*
X175298056Y-109881719D01*
X175298045Y-109881714D01*
X175079993Y-109791394D01*
X174852010Y-109730306D01*
X174618020Y-109699501D01*
X174618017Y-109699500D01*
X174618011Y-109699500D01*
X174381989Y-109699500D01*
X174381983Y-109699500D01*
X174381979Y-109699501D01*
X174147989Y-109730306D01*
X173920006Y-109791394D01*
X173701954Y-109881714D01*
X173701943Y-109881719D01*
X173497545Y-109999730D01*
X173310302Y-110143406D01*
X173310295Y-110143412D01*
X173143412Y-110310295D01*
X173143406Y-110310302D01*
X172999730Y-110497545D01*
X172881719Y-110701943D01*
X172881714Y-110701954D01*
X172791394Y-110920006D01*
X172730306Y-111147989D01*
X172699501Y-111381979D01*
X172699500Y-111381995D01*
X109192861Y-111381995D01*
X109118284Y-111201951D01*
X109118282Y-111201948D01*
X109118280Y-111201943D01*
X109076118Y-111128918D01*
X109000273Y-110997550D01*
X108856592Y-110810301D01*
X108856587Y-110810295D01*
X108689704Y-110643412D01*
X108689697Y-110643406D01*
X108502454Y-110499730D01*
X108502453Y-110499729D01*
X108502450Y-110499727D01*
X108420957Y-110452677D01*
X108298056Y-110381719D01*
X108298045Y-110381714D01*
X108079993Y-110291394D01*
X107852010Y-110230306D01*
X107618020Y-110199501D01*
X107618017Y-110199500D01*
X107618011Y-110199500D01*
X107381989Y-110199500D01*
X107381983Y-110199500D01*
X107381979Y-110199501D01*
X107147989Y-110230306D01*
X106920006Y-110291394D01*
X106701954Y-110381714D01*
X106701943Y-110381719D01*
X106497545Y-110499730D01*
X106310302Y-110643406D01*
X106310295Y-110643412D01*
X106143412Y-110810295D01*
X106143406Y-110810302D01*
X105999730Y-110997545D01*
X105881719Y-111201943D01*
X105881714Y-111201954D01*
X105791394Y-111420006D01*
X105730306Y-111647989D01*
X105699501Y-111881979D01*
X105699500Y-111881995D01*
X105000500Y-111881995D01*
X105000500Y-109620237D01*
X105020185Y-109553198D01*
X105072989Y-109507443D01*
X105123648Y-109496240D01*
X176874651Y-109004794D01*
X176941823Y-109024019D01*
G37*
%TD.AperFunction*%
%TD*%
M02*
